<svg version="1.1" id="Layer_1" xmlns="http://www.w3.org/2000/svg" x="0px" y="0px" width="100%" viewBox="0 0 2599 2746" enable-background="new 0 0 2599 2746" xml:space="preserve"><path fill="#124C5F" d=" M2602,1904 C2602,1922.708 2602,1941.416 2601.348,1961.292 C2593.993,1971.936 2587.702,1981.739 2580.506,1990.825 C2561.425,2014.919 2544.742,2040.719 2531.559,2068.261 C2511.488,2110.193 2493.592,2153.168 2474.982,2195.791 C2473.313,2199.613 2473.121,2204.093 2472.344,2208.287 C2470.965,2215.726 2470.928,2223.707 2468.085,2230.527 C2460.303,2249.196 2451.284,2267.347 2442.921,2285.779 C2441.017,2289.974 2440.225,2294.696 2438.16,2298.791 C2430.73,2313.524 2422.937,2328.074 2415.359,2342.733 C2411.549,2350.102 2408.234,2357.744 2404.121,2364.933 C2393.894,2382.809 2383.452,2400.566 2372.868,2418.234 C2366.734,2428.474 2360.459,2438.657 2353.705,2448.494 C2344.501,2461.897 2334.849,2474.995 2325.252,2488.125 C2319.791,2495.598 2314.138,2502.935 2308.428,2510.222 C2300.859,2519.881 2293.68,2529.917 2285.391,2538.923 C2269.17,2556.547 2252.63,2573.908 2235.607,2590.756 C2214.841,2611.308 2192.63,2630.228 2169.111,2647.655 C2150.147,2661.706 2130.686,2674.858 2109.808,2685.894 C2103.369,2689.297 2097.345,2693.569 2090.722,2696.525 C2073.202,2704.344 2055.505,2711.775 2037.78,2719.125 C2029.841,2722.417 2021.866,2725.971 2013.561,2727.964 C1993.935,2732.676 1974.11,2736.563 1954.347,2740.697 C1947.882,2742.05 1941.407,2743.666 1934.857,2744.225 C1922.636,2745.267 1910.357,2745.624 1897.289,2746.147 C1892.984,2746.686 1889.492,2747.343 1886,2748 C1862.624,2748 1839.249,2748 1814.53,2747.307 C1809.423,2746.498 1805.66,2746.382 1801.016,2746.046 C1796.804,2745.775 1793.454,2745.938 1790.148,2745.63 C1781.281,2744.803 1772.305,2744.413 1763.608,2742.672 C1751.603,2740.27 1739.805,2736.825 1727.936,2733.763 C1707.849,2728.58 1686.357,2730.487 1667.137,2720.404 C1651.083,2711.982 1632.273,2710.943 1616.139,2701.603 C1599.005,2691.685 1580.211,2684.681 1562.701,2675.354 C1548.709,2667.9 1535.589,2658.817 1522.017,2650.565 C1515.805,2646.789 1509.306,2643.477 1503.176,2639.578 C1497.312,2635.848 1491.759,2631.628 1486.066,2627.627 C1476.026,2620.572 1465.482,2614.126 1456.058,2606.327 C1440.966,2593.838 1426.714,2580.339 1411.931,2567.47 C1378.821,2538.645 1345.656,2509.888 1314.956,2478.441 C1314.49,2477.964 1314.049,2477.459 1313.549,2477.021 C1307.311,2471.555 1302.692,2471.161 1296.039,2476.148 C1290.753,2480.11 1285.198,2482.018 1278.463,2481.787 C1266.481,2481.376 1254.47,2481.876 1242.479,2481.619 C1227.577,2481.3 1212.494,2481.352 1200.521,2470.092 C1199.361,2469.001 1197.586,2468.563 1196.092,2467.831 C1182.984,2461.416 1169.923,2454.9 1156.74,2448.643 C1151.98,2446.384 1146.695,2445.185 1142.041,2442.754 C1118.44,2430.423 1092.981,2422.868 1068.157,2413.686 C1065.704,2412.778 1062.979,2412.627 1060.412,2411.996 C1057.212,2411.208 1054.029,2410.336 1050.864,2409.412 C1036.577,2405.237 1022.54,2399.448 1007.958,2397.234 C989.647,2394.454 971.372,2391.635 953.145,2388.311 C945.464,2386.911 937.242,2386.426 929.553,2387.526 C911.58,2390.097 893.797,2393.968 875.907,2397.145 C860.483,2399.883 846.058,2405.54 831.324,2410.662 C809.23,2418.343 788.232,2428.104 768.03,2439.496 C747.839,2450.883 728.512,2463.798 708.756,2475.961 C695.769,2483.957 682.645,2491.731 669.67,2499.745 C655.294,2508.625 641.234,2518.038 626.638,2526.533 C612.056,2535.019 596.955,2542.609 582.133,2550.687 C575.716,2554.184 569.648,2558.391 563.041,2561.457 C541.108,2571.638 519.024,2581.498 496.94,2591.35 C493.042,2593.088 488.955,2594.612 484.798,2595.517 C474.784,2597.697 464.53,2598.888 454.639,2601.493 C433.415,2607.082 411.989,2611.263 390.022,2611.589 C365.701,2611.949 341.366,2611.965 317.049,2611.531 C306.844,2611.349 296.48,2610.509 286.523,2608.395 C271.975,2605.308 257.755,2600.699 243.337,2596.962 C238.565,2595.724 233.269,2596.005 228.81,2594.155 C214.739,2588.316 200.64,2582.396 187.142,2575.374 C173.069,2568.053 159.708,2559.655 147.154,2549.531 C135.227,2539.913 123.776,2529.855 112.921,2519.205 C90.66,2497.362 68.347,2475.669 50.872,2449.289 C40.879,2434.206 33.324,2418.137 25.48,2402.137 C19.681,2390.309 15.676,2377.599 10.967,2365.245 C10.269,2363.412 9.908,2361.395 9.72,2359.432 C8.963,2351.513 9.121,2343.411 7.448,2335.702 C5.591,2327.146 7.81,2317.686 2,2310 C2,2279.958 2,2249.916 2.647,2218.516 C4.067,2214.988 5.374,2212.855 5.526,2210.643 C6.594,2195.075 7.274,2179.48 8.375,2163.915 C9.427,2149.039 10.308,2134.119 12.237,2119.346 C14.336,2103.275 17.446,2087.332 20.321,2071.37 C22.551,2058.99 24.448,2046.497 27.645,2034.358 C33.376,2012.597 39.969,1991.063 46.215,1969.439 C46.675,1967.846 47.115,1966.228 47.778,1964.717 C57.63,1942.28 67.683,1919.931 77.349,1897.416 C86.658,1875.733 99.203,1855.902 111.577,1835.947 C130.409,1805.578 153.324,1778.444 178.425,1753.221 C210.781,1720.707 241.686,1686.501 280.422,1661.03 C294.521,1651.759 308.461,1642.18 323.054,1633.746 C334.472,1627.148 346.787,1622.103 358.7,1616.361 C366.161,1612.765 373.478,1608.827 381.103,1605.622 C398.535,1598.295 416.504,1592.583 434.59,1586.987 C452.347,1581.492 469.961,1575.843 488.25,1572.41 C499.331,1570.33 510.264,1567.159 521.425,1565.869 C548.415,1562.749 575.492,1560.367 602.549,1557.841 C619.055,1556.301 635.589,1555.054 652.109,1553.659 C669.28,1552.21 686.486,1551.064 703.602,1549.127 C710.792,1548.313 717.98,1546.346 724.831,1543.94 C734.135,1540.672 735.903,1533.141 729.849,1525.392 C728.416,1523.558 727.06,1521.626 725.41,1520.003 C709.059,1503.914 692.968,1487.54 676.128,1471.977 C667.879,1464.353 658.681,1457.492 649.08,1451.654 C632.093,1441.326 614.492,1432.002 597.097,1422.35 C592.469,1419.783 587.451,1417.88 582.963,1415.105 C568.582,1406.215 554.296,1397.167 540.106,1387.974 C528.444,1380.419 516.699,1372.944 505.484,1364.757 C491.813,1354.778 478.675,1344.071 465.277,1333.718 C456.629,1327.034 447.509,1320.893 439.348,1313.665 C426.653,1302.421 414.358,1290.698 402.313,1278.755 C373.978,1250.661 345.481,1222.706 321.248,1190.804 C315.228,1182.878 308.18,1175.734 302.141,1167.821 C297.533,1161.783 293.85,1155.047 289.618,1148.714 C283.539,1139.619 276.748,1130.947 271.312,1121.489 C261.24,1103.965 251.924,1086.007 242.305,1068.222 C239.943,1063.853 237.192,1059.631 235.369,1055.043 C226.562,1032.886 217.943,1010.652 209.411,988.387 C206.813,981.609 204.193,974.767 202.504,967.733 C200.419,959.052 200.231,949.847 197.583,941.381 C189.184,914.527 187.379,886.682 184.533,859.035 C182.835,842.545 182.46,825.862 182.455,809.266 C182.448,781.992 183.221,754.716 183.686,727.442 C183.708,726.117 183.909,724.793 184.069,723.473 C185.26,713.619 186.769,703.792 187.605,693.909 C190.288,662.213 193.517,630.679 203.904,600.28 C208.075,588.071 209.894,575.029 214.409,562.975 C221.144,544.998 229.23,527.523 236.91,509.908 C241.947,498.355 246.622,486.573 252.634,475.534 C262.158,458.049 272.015,440.672 282.922,424.031 C296.563,403.219 310.627,382.582 325.979,363.025 C338.669,346.86 353.064,331.951 367.466,317.232 C398.174,285.849 429.139,254.785 464.151,227.927 C487.321,210.153 510.285,192.209 535.052,176.684 C548.277,168.394 560.986,159.172 574.688,151.776 C596.862,139.807 619.686,129.042 642.182,117.664 C648.109,114.666 653.788,111.178 659.685,108.117 C662.896,106.449 666.284,105.094 669.664,103.787 C688.813,96.38 707.996,89.062 727.137,81.636 C731.458,79.96 735.539,77.597 739.936,76.196 C763.915,68.554 787.962,61.129 811.976,53.599 C823.328,50.04 834.581,46.138 846.027,42.918 C853.02,40.951 860.324,40.115 867.438,38.542 C879.366,35.905 891.223,32.937 903.169,30.388 C913.215,28.244 923.363,26.577 933.437,24.558 C947.738,21.693 961.891,17.645 976.325,15.98 C1005.93,12.563 1035.651,10.017 1065.377,7.832 C1088.873,6.106 1112.445,5.373 1135.99,4.369 C1145.298,3.973 1154.626,4.039 1164.826,3.974 C1171.081,2.918 1177.017,6.248 1182,2 C1212.708,2 1243.416,2 1275.434,2.718 C1280.542,3.531 1284.341,3.624 1289,3.939 C1296.126,4.721 1302.395,5.249 1308.656,5.851 C1316.91,6.646 1325.147,7.621 1333.409,8.302 C1350.576,9.719 1367.777,10.754 1384.921,12.393 C1402.728,14.095 1420.512,16.116 1438.256,18.384 C1456.648,20.734 1475.037,23.213 1493.325,26.249 C1514.537,29.77 1535.609,34.132 1556.798,37.802 C1571.496,40.348 1586.449,41.609 1601.001,44.768 C1619.045,48.686 1636.76,54.097 1654.676,58.633 C1672.311,63.098 1689.97,67.492 1707.711,71.512 C1722.847,74.942 1738.167,77.556 1753.303,80.987 C1763.935,83.397 1774.382,86.619 1784.935,89.391 C1791.02,90.989 1797.167,92.351 1803.258,93.928 C1821.812,98.733 1840.396,103.431 1858.872,108.522 C1864.603,110.101 1869.867,113.433 1875.617,114.878 C1898.424,120.606 1920.835,127.493 1942.872,135.724 C1958.996,141.746 1975.754,146.204 1991.543,152.961 C2010.963,161.271 2029.716,171.151 2048.672,180.527 C2072.492,192.31 2095.868,204.823 2117.998,219.697 C2132.281,229.298 2147.862,236.955 2162.269,246.388 C2196.035,268.497 2231.806,286.61 2269.342,301.229 C2279.156,305.051 2289.652,307.095 2299.758,310.203 C2316.812,315.446 2333.727,321.152 2350.844,326.172 C2368.252,331.277 2386.115,334.966 2403.245,340.834 C2415.663,345.087 2427.283,351.735 2439.115,357.607 C2445.333,360.692 2451.767,363.737 2457.161,367.995 C2464.443,373.743 2471.146,380.333 2477.507,387.117 C2487.5,397.775 2496.942,408.948 2506.735,419.796 C2511.205,424.747 2514.629,430.085 2517.605,436.208 C2522.64,446.565 2522.574,457.687 2523.222,468.246 C2524.848,494.743 2526.296,521.418 2522.261,547.901 C2520.268,560.982 2518.861,574.474 2511.391,585.794 C2503.668,597.498 2501.678,610.193 2501.574,623.724 C2501.508,632.327 2500.899,640.965 2499.872,649.509 C2498.925,657.391 2497.246,665.199 2495.599,672.978 C2494.583,677.778 2493.909,682.971 2491.535,687.099 C2485.381,697.796 2480.067,708.68 2477.102,720.753 C2476.194,724.447 2473.503,727.76 2471.371,731.083 C2467.617,736.933 2463.666,742.656 2459.797,748.432 C2457.591,751.727 2455.666,755.26 2453.124,758.271 C2443.059,770.194 2433.363,782.502 2422.485,793.646 C2405.33,811.222 2389.082,829.915 2367.817,843.001 C2365.295,844.553 2363.216,846.808 2360.823,848.591 C2357.63,850.97 2354.481,853.466 2351.048,855.453 C2343.022,860.098 2335.05,864.926 2326.656,868.819 C2318.614,872.548 2310.271,876.093 2301.681,878.042 C2294.029,879.777 2285.861,879.35 2277.913,879.636 C2268.806,879.964 2259.966,886.725 2257.673,895.608 C2254.853,906.536 2252.67,917.657 2249.277,928.399 C2245.814,939.362 2248.532,948.074 2256.842,955.277 C2263.599,961.134 2271.252,966.033 2277.576,972.297 C2298.848,993.366 2320.038,1014.538 2340.638,1036.26 C2369.233,1066.413 2391.623,1100.868 2409.504,1138.352 C2428.336,1177.831 2442.918,1218.831 2451.461,1261.673 C2459.597,1302.472 2462.584,1343.933 2461.429,1385.538 C2461.102,1397.344 2459.298,1409.24 2453.778,1420.271 C2446.789,1434.24 2440.538,1448.577 2433.862,1462.705 C2432.884,1464.775 2431.678,1467.009 2429.961,1468.416 C2415.152,1480.552 2398.597,1489.919 2380.403,1495.552 C2368.764,1499.156 2356.406,1500.596 2344.286,1502.453 C2311.374,1507.495 2282.71,1497.551 2257.424,1476.776 C2248.184,1469.185 2239.247,1461.202 2230.47,1453.076 C2225.629,1448.594 2220.954,1443.786 2216.978,1438.539 C2193.633,1407.738 2172.666,1375.331 2154.155,1341.437 C2142.024,1319.224 2133.01,1295.536 2127.844,1270.706 C2121.899,1242.126 2116.966,1213.336 2111.53,1184.649 C2110.524,1179.34 2109.021,1174.217 2102.312,1171.724 C2099.306,1173.953 2095.545,1176.154 2092.53,1179.116 C2087.868,1183.697 2082.775,1186.94 2076.217,1188.012 C2073.666,1188.429 2071.268,1189.869 2068.838,1190.929 C2052.32,1198.136 2035.512,1203.426 2017.033,1202.475 C2000.083,1201.603 1983.064,1201.433 1966.093,1201.788 C1945.127,1202.227 1925.309,1198.11 1906.284,1189.467 C1900.875,1187.009 1895.099,1185.363 1889.665,1182.953 C1884.229,1180.542 1878.489,1178.336 1873.801,1174.816 C1862.417,1166.27 1851.346,1157.27 1840.548,1147.987 C1819.386,1129.794 1798.66,1111.134 1784.265,1086.696 C1783.76,1085.838 1783.162,1085.035 1782.593,1084.216 C1775.037,1073.356 1767.473,1062.501 1759.932,1051.631 C1759.367,1050.816 1758.706,1049.943 1758.517,1049.011 C1756.482,1038.932 1749.897,1031.208 1744.966,1022.63 C1743.808,1020.616 1742.454,1018.694 1741.488,1016.593 C1734.15,1000.63 1727.264,984.445 1719.456,968.718 C1714.765,959.269 1709.323,950.23 1705.777,940.201 C1703.419,933.533 1699.245,927.932 1693.821,923.266 C1683.239,914.164 1673.223,904.327 1662.114,895.932 C1644.359,882.515 1626.855,868.327 1607.542,857.502 C1568.32,835.515 1526.618,818.694 1483.707,805.181 C1462.178,798.402 1440.341,791.458 1417.727,790.659 C1386.185,789.543 1354.728,790.509 1324.744,803.46 C1301.138,813.657 1279.874,826.739 1262.859,846.086 C1250.254,860.417 1241.861,877.214 1233.704,894.481 C1222.638,917.907 1220.081,942.884 1216.717,967.725 C1215.519,976.573 1218.478,986.056 1219.975,995.178 C1221.799,1006.284 1222.996,1017.663 1226.41,1028.3 C1232.285,1046.609 1238.827,1064.805 1246.607,1082.377 C1258.47,1109.177 1274.594,1133.665 1291.297,1157.663 C1299.258,1169.101 1308.137,1179.935 1317.056,1190.664 C1336.373,1213.903 1355.31,1237.51 1375.625,1259.855 C1409.412,1297.018 1444.474,1333.021 1478.385,1370.074 C1498.56,1392.119 1518.514,1414.496 1536.842,1438.066 C1557.992,1465.263 1578.668,1492.977 1594.621,1523.779 C1598.432,1531.138 1603.269,1538.028 1606.492,1545.619 C1616.331,1568.793 1625.049,1592.353 1631.689,1616.733 C1636.861,1635.724 1640.836,1655.051 1641.245,1674.427 C1641.968,1708.655 1642.994,1742.953 1639.861,1777.221 C1637.608,1801.864 1630.838,1825.147 1622.413,1848.141 C1620.712,1852.785 1619.626,1857.838 1617.047,1861.942 C1608.072,1876.231 1601.84,1892.212 1590.084,1904.81 C1583.988,1911.343 1578.713,1918.636 1572.983,1925.516 C1570.431,1928.579 1567.849,1931.657 1564.968,1934.399 C1558.708,1940.359 1559.992,1946.743 1566.103,1951.363 C1573.213,1956.739 1580.539,1962.176 1588.537,1965.972 C1617.541,1979.735 1646.29,1994.309 1678.237,2000.51 C1694.154,2003.599 1710,2007.071 1725.952,2009.955 C1732.105,2011.067 1738.516,2011.757 1744.721,2011.335 C1753.284,2010.752 1761.79,2009.087 1770.274,2007.616 C1795.669,2003.21 1819.8,1994.87 1842.531,1982.846 C1870.964,1967.805 1896.371,1948.397 1918.795,1925.469 C1942.508,1901.222 1964.897,1875.683 1988.423,1851.246 C2009.897,1828.941 2031.604,1806.81 2054.151,1785.604 C2077.864,1763.301 2102.598,1742.077 2127.094,1720.621 C2134.319,1714.293 2141.871,1708.182 2149.937,1703.006 C2170.579,1689.76 2191.462,1676.873 2212.5,1664.263 C2232.105,1652.513 2251.777,1640.917 2272.303,1630.706 C2296.305,1618.765 2320.299,1606.929 2345.6,1598 C2362.41,1592.067 2378.412,1584.233 2395.698,1579.229 C2412.088,1574.484 2428.043,1570.167 2445.254,1571.558 C2452.87,1572.174 2460.603,1571.295 2468.234,1571.81 C2472.359,1572.088 2476.796,1573.125 2480.376,1575.11 C2494.024,1582.676 2503.341,1595.07 2513.799,1606.184 C2518.172,1610.832 2519.886,1616.114 2519.757,1622.508 C2519.468,1636.834 2519.263,1651.187 2519.83,1665.497 C2520.133,1673.156 2517.799,1679.518 2512.669,1684.443 C2498.047,1698.483 2483.208,1712.318 2468.033,1725.758 C2455.361,1736.982 2441.041,1746.518 2429.354,1758.637 C2413.952,1774.607 2400.066,1792.096 2386.166,1809.443 C2371.43,1827.833 2356.842,1846.401 2343.293,1865.667 C2329.738,1884.943 2317.182,1904.954 2304.852,1925.05 C2290.785,1947.978 2277.43,1971.343 2263.84,1994.561 C2262.714,1996.485 2262.153,1998.74 2260.495,2002.971 C2263.875,2000.843 2265.007,2000.192 2266.074,1999.449 C2292.006,1981.396 2317.638,1962.893 2343.956,1945.424 C2362.502,1933.114 2381.677,1921.664 2401.114,1910.802 C2430.91,1894.15 2463,1883.325 2496.245,1875.848 C2502.387,1874.467 2508.49,1872.077 2514.67,1871.862 C2530.983,1871.295 2547.333,1871.445 2563.656,1871.834 C2567.357,1871.922 2571.968,1873.133 2574.51,1875.557 C2584.043,1884.65 2592.893,1894.459 2602,1904 M1954.96,750.255 C1951.619,738.832 1947.486,727.587 1947.961,715.374 C1948.167,710.05 1948.223,704.692 1947.873,699.381 C1947.241,689.801 1949.438,680.982 1953.427,672.313 C1956.706,665.186 1961.52,660.108 1969.07,658.075 C1975.159,656.436 1981.336,654.854 1987.577,654.105 C1997.046,652.969 2006.609,652.619 2016.126,651.852 C2022.737,651.318 2029.337,650.648 2035.942,650.032 C2041.224,649.539 2046.51,649.086 2051.785,648.523 C2057.719,647.889 2063.633,647.039 2069.574,646.498 C2074.131,646.083 2078.733,646.163 2083.286,645.724 C2087.24,645.342 2091.146,644.494 2095.085,643.932 C2106.598,642.291 2118.184,641.066 2129.614,638.981 C2145.622,636.062 2161.496,632.422 2177.464,629.28 C2184.027,627.989 2186.311,629.432 2185.788,636.41 C2184.697,650.933 2183.911,665.693 2180.58,679.784 C2175.63,700.721 2167.967,720.814 2157.829,740.067 C2152.852,749.52 2147.471,758.544 2141.524,767.322 C2137.817,772.794 2133.84,778.1 2130.438,783.753 C2129.449,785.397 2129.377,788.264 2130.141,790.026 C2130.56,790.994 2133.804,791.525 2135.418,791.048 C2141.733,789.183 2148.11,787.283 2154.073,784.545 C2160.083,781.786 2165.548,777.867 2171.392,774.717 C2203.635,757.34 2229.616,733.013 2251.081,703.55 C2263.051,687.119 2271.81,668.913 2280.879,650.868 C2282.2,648.239 2283.094,645.376 2283.994,642.56 C2286.505,634.707 2289.056,626.862 2291.322,618.937 C2293.066,612.832 2297.383,610.333 2303.169,610.109 C2310.157,609.839 2317.173,609.79 2324.158,610.1 C2329.267,610.326 2331.51,612.868 2331.347,617.674 C2331.047,626.54 2330.579,635.401 2330.079,644.259 C2329.013,663.169 2325.157,681.516 2320.157,699.793 C2315.204,717.9 2307.527,734.804 2299.35,751.452 C2291.753,766.92 2282.642,781.651 2274.038,796.615 C2271.811,800.49 2268.988,804.023 2266.218,808.031 C2277.125,811.006 2278.657,810.735 2285.644,805.461 C2287.224,804.268 2288.85,803.058 2290.624,802.21 C2309.307,793.285 2326.701,782.398 2342.949,769.5 C2360,755.965 2374.015,739.643 2386.867,722.377 C2399.742,705.08 2409.489,686.04 2418.022,666.044 C2425.591,648.31 2429.059,629.765 2433.395,611.451 C2436.408,598.725 2435.716,585.003 2435.725,571.726 C2435.73,563.587 2438.861,557.097 2442.535,550.309 C2446.29,543.371 2450.005,536.183 2452.145,528.652 C2455.608,516.471 2455.496,503.969 2454.375,491.202 C2453.037,475.951 2447.608,462.904 2438.257,451.325 C2421.642,430.749 2399.552,418.119 2374.904,409.932 C2355.047,403.336 2334.876,397.668 2314.765,391.866 C2303.621,388.652 2292.15,386.514 2281.118,382.983 C2265.633,378.027 2250.701,371.119 2235.004,367.116 C2220.924,363.525 2208.183,357.211 2195.606,350.807 C2174.905,340.266 2155.053,328.051 2134.91,316.427 C2116.262,305.666 2097.367,295.28 2079.211,283.738 C2065.471,275.003 2052.105,265.809 2037.572,258.289 C2012.281,245.201 1986.745,232.682 1960.493,221.659 C1953.202,218.598 1945.105,217.13 1938.309,213.285 C1924.326,205.373 1908.171,204.038 1893.806,196.944 C1881.208,190.724 1867.017,187.644 1853.403,183.605 C1846.417,181.532 1839.036,180.796 1832.041,178.747 C1818.426,174.758 1805.11,169.675 1791.392,166.123 C1767.908,160.042 1744.209,154.791 1720.602,149.188 C1719.306,148.881 1718.026,148.504 1716.724,148.23 C1705.384,145.848 1693.999,143.664 1682.71,141.062 C1670.141,138.164 1657.699,134.714 1645.127,131.826 C1631.925,128.792 1618.605,126.274 1605.393,123.282 C1592.446,120.349 1579.587,117.029 1566.656,114.02 C1558.266,112.067 1549.827,110.322 1541.393,108.565 C1530.709,106.339 1520.091,103.382 1509.287,102.276 C1500.979,101.426 1492.777,100.963 1484.819,98.151 C1481.715,97.055 1478.334,96.657 1475.045,96.187 C1459.937,94.029 1444.701,92.552 1429.739,89.656 C1418.905,87.558 1408.223,85.495 1397.134,85.827 C1394.235,85.914 1391.304,84.746 1388.379,84.204 C1384.168,83.424 1379.976,82.404 1375.727,82.013 C1371.094,81.586 1366.383,82.022 1361.744,81.629 C1332.954,79.191 1304.219,75.725 1275.382,74.336 C1240.917,72.676 1206.371,72.5 1171.856,72.217 C1159.255,72.113 1146.631,73.405 1134.036,74.305 C1108.853,76.104 1083.706,79.064 1058.5,79.658 C1038.382,80.133 1018.852,84.013 999.215,86.983 C970.353,91.346 941.798,97.738 913.1,103.196 C908.868,104.001 904.429,103.944 900.318,105.105 C883.399,109.884 866.593,115.062 849.701,119.937 C831.848,125.089 813.724,129.406 796.118,135.284 C774.719,142.428 753.437,150.109 732.651,158.858 C706.975,169.665 681.885,181.86 656.498,193.36 C633.792,203.647 612.031,215.721 590.915,228.875 C574.007,239.407 557.71,250.92 541.135,261.989 C535.082,266.031 528.729,269.687 523.01,274.155 C513.589,281.512 504.485,289.284 495.407,297.068 C481.53,308.967 467.555,320.768 454.069,333.099 C444.041,342.268 434.571,352.068 425.129,361.853 C416.352,370.949 407.271,379.874 399.507,389.799 C382.948,410.969 366.235,432.121 351.292,454.424 C334.306,479.777 319.064,506.31 306.99,534.492 C301.636,546.988 295.894,559.324 290.816,571.93 C287.747,579.55 286.63,588.085 282.836,595.258 C276.212,607.78 274.331,621.637 270.209,634.809 C265.758,649.029 263.193,663.877 260.382,678.561 C257.886,691.601 254.758,704.756 254.421,717.924 C253.735,744.781 251.221,771.531 251.491,798.483 C251.719,821.195 253.957,843.643 256.554,866.002 C259.03,887.316 262.847,908.628 269.74,929.181 C276.79,950.202 283.527,971.328 290.448,992.393 C291.576,995.826 292.909,999.194 294.205,1002.57 C296.815,1009.371 298.746,1016.552 302.228,1022.877 C315.199,1046.434 328.403,1069.874 342.091,1093.019 C349.34,1105.275 357.349,1117.141 365.788,1128.614 C373.061,1138.502 382.48,1146.907 389.09,1157.166 C401.509,1176.443 419.121,1190.962 433.64,1208.275 C439.569,1215.345 447.136,1221.079 454.167,1227.179 C473.494,1243.947 492.584,1261.012 512.415,1277.165 C535.351,1295.847 559.652,1312.737 584.781,1328.372 C595.22,1334.868 605.841,1341.085 616.542,1347.141 C637.366,1358.925 658.379,1370.375 679.156,1382.239 C686.89,1386.654 694.817,1391.098 701.54,1396.838 C714.128,1407.586 725.879,1419.313 738.02,1430.589 C753.568,1445.027 770.23,1458.447 784.439,1474.097 C800.075,1491.317 813.284,1510.377 816.846,1534.771 C820.94,1562.81 811.823,1582.43 790.114,1597.685 C774.328,1608.778 755.866,1613.944 737.199,1617.458 C703.454,1623.811 669.118,1624.077 634.958,1625.981 C619.028,1626.869 603.079,1627.414 587.14,1628.148 C585.818,1628.209 584.502,1628.497 583.194,1628.735 C570.146,1631.117 557.129,1633.682 544.047,1635.858 C528.712,1638.408 513.253,1640.059 498.42,1645.289 C488.793,1648.683 478.918,1651.957 468.88,1653.467 C451.554,1656.074 436.171,1664.087 420.054,1669.834 C404.225,1675.478 389.27,1683.703 374.219,1691.362 C361.792,1697.686 349.447,1704.299 337.667,1711.737 C316.271,1725.247 296.318,1740.703 277.19,1757.355 C255.763,1776.008 236.355,1796.482 218.406,1818.38 C208.721,1830.197 199.631,1842.511 190.535,1854.794 C189.051,1856.798 188.93,1859.811 187.572,1864.412 C195.213,1862.575 200.76,1861.783 205.905,1859.894 C217.435,1855.661 228.589,1850.363 240.213,1846.436 C263.186,1838.674 286.318,1831.367 309.495,1824.233 C321.868,1820.424 334.354,1816.822 346.997,1814.085 C371.941,1808.685 396.995,1803.769 422.07,1799.006 C439.691,1795.66 457.426,1792.922 475.103,1789.866 C481.975,1788.678 488.782,1786.679 495.694,1786.239 C513.612,1785.099 531.572,1784.63 549.514,1783.866 C551.173,1783.795 552.821,1783.496 554.479,1783.362 C568.051,1782.263 581.624,1780.289 595.198,1780.279 C622.138,1780.26 649.076,1781.709 676.018,1781.847 C708.638,1782.014 741.156,1783.757 773.705,1785.714 C800.592,1787.331 827.585,1787.884 854.523,1787.706 C871.092,1787.597 887.685,1785.593 904.195,1783.782 C924.319,1781.574 944.447,1779.068 963.569,1771.771 C966.369,1770.702 969.057,1769.195 971.944,1768.527 C989.112,1764.557 1003.846,1755.014 1018.167,1745.853 C1034.296,1735.537 1048.936,1722.594 1060.43,1706.705 C1072.388,1690.174 1083.192,1672.896 1085.647,1652.3 C1087.676,1635.286 1090.526,1618.484 1088.768,1600.794 C1086.749,1580.477 1084.151,1560.734 1076.239,1541.898 C1073.799,1536.088 1070.56,1530.613 1068.128,1524.801 C1059.617,1504.46 1047.42,1486.266 1035.316,1468.025 C1031.458,1462.21 1027.092,1456.73 1022.902,1451.139 C1015.562,1441.344 1008.445,1431.366 1000.743,1421.863 C991.557,1410.529 981.883,1399.589 972.36,1388.531 C968.238,1383.744 962.912,1379.661 959.973,1374.257 C953.471,1362.302 942.755,1354.119 934.489,1343.776 C921.219,1327.172 906.613,1311.643 893.012,1295.293 C880.516,1280.27 868.436,1264.892 856.476,1249.437 C842.859,1231.84 829.158,1214.282 816.289,1196.143 C806.487,1182.327 797.806,1167.704 788.857,1153.296 C782.916,1143.73 776.758,1134.219 771.781,1124.147 C756.221,1092.661 740.515,1061.207 729.312,1027.792 C726.158,1018.385 722.633,1009.053 720.261,999.443 C716.6,984.609 713.634,969.596 710.689,954.596 C709.543,948.758 709.313,942.744 708.556,936.824 C707.76,930.595 706.543,924.406 706.027,918.157 C705.182,907.902 705.019,897.589 704.101,887.342 C701.526,858.614 708.016,830.398 708.674,801.86 C708.689,801.215 709.03,800.581 709.196,799.936 C712.817,785.803 716.281,771.629 720.102,757.551 C722.973,746.977 725.373,736.135 729.623,726.108 C737.748,706.937 746.653,688.066 756.031,669.472 C760.162,661.282 767.011,654.48 771.292,646.346 C783.219,623.682 799.932,604.689 817.146,586.244 C835.963,566.08 856.822,548.019 879.562,532.254 C884.196,529.041 888.695,525.634 893.274,522.342 C910.598,509.889 929.313,499.874 948.678,491.055 C963.472,484.317 977.917,476.241 993.376,471.658 C1024.266,462.502 1054.675,451.359 1086.717,446.34 C1104.772,443.512 1122.728,440.015 1140.817,437.443 C1155.898,435.299 1171.086,433.825 1186.264,432.478 C1212.71,430.132 1239.179,428.038 1265.651,425.996 C1275.5,425.236 1285.379,424.737 1295.254,424.436 C1317.758,423.75 1340.691,420.716 1360.563,435.643 C1362.381,437.009 1364.743,437.641 1366.823,438.672 C1372.478,441.474 1378.304,443.99 1383.725,447.192 C1397.117,455.101 1410.508,463.04 1423.55,471.506 C1439.11,481.606 1454.5,491.995 1469.588,502.784 C1479.027,509.534 1487.798,517.223 1496.827,524.543 C1518.299,541.951 1538.662,560.598 1557.7,580.618 C1570.755,594.346 1583.434,608.46 1595.723,622.877 C1609.513,639.055 1623.312,655.295 1635.945,672.368 C1651.159,692.93 1665.418,714.218 1679.563,735.542 C1687.64,747.717 1694.961,760.423 1702.104,773.18 C1716.377,798.669 1730.633,824.178 1744.25,850.019 C1754.883,870.199 1764.343,890.973 1773.608,911.845 C1781.131,928.792 1789.981,945.161 1798.528,961.639 C1808.766,981.376 1818.806,1001.244 1829.884,1020.507 C1837.994,1034.609 1846.292,1049.006 1856.916,1061.165 C1873.054,1079.634 1890.022,1097.768 1912.277,1109.446 C1922.853,1114.995 1933.133,1121.938 1944.429,1125.098 C1963.927,1130.555 1984.187,1134.756 2004.571,1131.649 C2017.917,1129.614 2031.644,1126.62 2043.801,1121.018 C2063.61,1111.89 2080.006,1097.631 2092.348,1079.295 C2096.479,1073.158 2100.108,1066.684 2104.12,1060.113 C2097.45,1056.01 2092.338,1059.545 2087.015,1060.655 C2074.715,1063.22 2062.443,1066.913 2050.013,1067.645 C2029.701,1068.839 2010.681,1063.345 1993.31,1052.182 C1982.241,1045.069 1975.455,1036.368 1978.136,1022.51 C1982.175,1001.64 1986.814,980.894 1993.849,960.821 C1997.448,950.554 2002.355,940.75 2006.525,930.676 C2008.298,926.392 2009.322,921.77 2011.346,917.623 C2015.546,909.021 2020.177,900.629 2024.649,892.161 C2029.135,883.667 2034.235,875.435 2037.961,866.62 C2041.037,859.342 2046.852,852.189 2042.275,842.206 C2039.829,842.791 2037.177,842.892 2035.085,844.027 C2028.667,847.509 2022.442,851.351 2016.184,855.123 C2008.826,859.558 2005.047,859.143 1999.905,852.511 C1996.649,848.312 1993.492,843.916 1991.081,839.203 C1980.346,818.211 1969.482,797.25 1962.058,774.773 C1959.564,767.222 1957.631,759.485 1954.96,750.255 M2115.591,2292.523 C2108.324,2304.077 2101.307,2315.797 2093.743,2327.154 C2074.473,2356.087 2052.004,2382.401 2025.562,2404.925 C2012.98,2415.642 1999.015,2425.035 1984.688,2433.321 C1971.004,2441.236 1956.297,2447.595 1941.547,2453.381 C1931.177,2457.448 1920.109,2460.097 1909.122,2462.136 C1895.445,2464.674 1881.576,2466.72 1867.706,2467.514 C1854.805,2468.252 1841.792,2467.114 1828.83,2466.719 C1814.557,2466.283 1800.321,2465.654 1786.353,2462.112 C1777.416,2459.846 1768.206,2458.606 1759.346,2456.1 C1748.891,2453.143 1738.538,2449.691 1728.402,2445.778 C1713.904,2440.182 1698.857,2435.353 1685.456,2427.718 C1662.409,2414.588 1639.694,2400.59 1618.236,2385.03 C1594.052,2367.493 1570.668,2348.665 1548.324,2328.836 C1528.21,2310.985 1509.731,2291.255 1490.961,2271.936 C1458.711,2238.744 1427.194,2204.83 1394.603,2171.98 C1371.876,2149.072 1348.236,2127.03 1324.328,2105.347 C1300.458,2083.698 1276.395,2062.272 1249.641,2043.983 C1229.912,2030.495 1211.927,2014.541 1190.746,2003.027 C1171.199,1992.401 1152.472,1980.204 1132.621,1970.216 C1112.546,1960.117 1091.765,1951.3 1070.868,1942.989 C1049.609,1934.535 1027.917,1927.128 1006.248,1919.756 C993.727,1915.496 980.96,1911.877 968.148,1908.578 C954.998,1905.192 941.686,1902.406 928.389,1899.628 C919.967,1897.869 911.435,1896.637 902.963,1895.112 C889.938,1892.767 876.977,1889.987 863.887,1888.106 C850.085,1886.124 836.169,1884.929 822.292,1883.495 C815.351,1882.779 808.391,1882.239 801.432,1881.723 C784.538,1880.47 767.649,1878.385 750.743,1878.234 C705.488,1877.829 660.186,1876.486 615.062,1881.895 C599.899,1883.712 584.546,1884.069 569.44,1886.217 C538.901,1890.56 508.299,1894.799 478.051,1900.75 C455.047,1905.276 432.373,1911.786 409.877,1918.503 C386.649,1925.438 363.401,1932.214 340.793,1941.39 C312.16,1953.01 283.693,1964.973 257.305,1980.89 C236.066,1993.701 214.503,2006.185 195.487,2022.647 C176.828,2038.8 158.74,2055.282 142.633,2074.071 C115.818,2105.35 97.155,2140.814 84.889,2179.979 C76.868,2205.588 73.541,2231.895 72.204,2258.492 C71.774,2267.047 73.732,2275.696 73.895,2284.314 C74.263,2303.781 78.055,2322.643 83.436,2341.211 C90.309,2364.924 100.054,2387.345 113.367,2408.276 C128.907,2432.706 148.788,2453.291 169.997,2472.546 C181.271,2482.781 193.615,2492.277 206.744,2499.931 C230.565,2513.817 256.048,2524.162 282.809,2531.454 C316.299,2540.58 350.363,2543.275 384.572,2539.593 C414.283,2536.394 443.712,2530.499 471.825,2519.619 C494.717,2510.76 517.311,2501.229 538.665,2489.026 C560.594,2476.496 582.555,2464.016 604.294,2451.162 C628.621,2436.777 653.075,2422.557 676.823,2407.254 C708.674,2386.731 740.562,2366.423 775.582,2351.561 C798.579,2341.801 821.783,2332.92 846.38,2327.683 C864.914,2323.737 883.477,2320.258 902.252,2317.853 C908.174,2317.094 914.141,2316.14 920.081,2316.181 C941.008,2316.326 961.938,2314.918 982.758,2319.624 C995.959,2322.607 1009.883,2322.301 1023.172,2325.003 C1055.793,2331.635 1087.687,2341.077 1118.963,2352.489 C1134.807,2358.27 1150.682,2364.052 1166.166,2370.711 C1183.836,2378.31 1201.109,2386.835 1218.508,2395.056 C1226.887,2399.016 1235.102,2403.324 1243.531,2407.17 C1244.994,2407.837 1247.152,2406.984 1249.307,2406.807 C1249.422,2399.779 1243.921,2397.431 1240.439,2393.777 C1235.888,2389.001 1231.138,2384.414 1226.466,2379.754 C1224.345,2377.639 1222.292,2375.444 1220.056,2373.458 C1210.112,2364.628 1200.14,2355.831 1190.129,2347.079 C1178.612,2337.013 1167.531,2326.366 1155.381,2317.129 C1138.191,2304.059 1120.467,2291.64 1102.488,2279.671 C1063.966,2254.025 1023.528,2231.939 980.427,2214.778 C951.383,2203.214 921.66,2194.2 890.988,2188.313 C881.855,2186.561 872.651,2185.004 863.408,2184.041 C852.503,2182.906 841.345,2183.503 830.611,2181.587 C810.226,2177.947 790.1,2181.1 769.924,2182.427 C758.698,2183.165 747.559,2185.504 736.439,2187.453 C730.255,2188.536 724.17,2190.219 718.077,2191.771 C701.093,2196.098 683.619,2199.13 667.281,2205.206 C645.584,2213.274 624.431,2223.041 603.684,2233.363 C580.809,2244.744 558.583,2257.442 536.221,2269.832 C520.81,2278.37 506.042,2288.155 490.276,2295.946 C470.706,2305.616 450.838,2314.638 429.908,2321.458 C403.427,2330.086 377.247,2331.351 350.574,2323.728 C332.835,2318.658 318.363,2307.953 309.126,2292.704 C293.784,2267.373 294.182,2240.089 305.989,2213.262 C316.204,2190.052 333.96,2173.036 353.914,2158.122 C378.948,2139.411 407.232,2126.798 436.457,2116.777 C461.044,2108.346 485.956,2100.719 511.415,2094.798 C539.996,2088.149 568.849,2083.732 597.861,2080.016 C608.396,2078.667 619.064,2078.37 629.665,2077.522 C643.568,2076.41 657.446,2074.736 671.369,2074.208 C687.014,2073.613 702.702,2073.771 718.362,2074.067 C736.982,2074.418 755.599,2075.137 774.206,2075.958 C781.829,2076.293 789.429,2077.237 797.026,2078.033 C812.881,2079.695 828.84,2080.741 844.552,2083.296 C879.949,2089.053 915.009,2096.398 949.176,2107.636 C966.12,2113.209 983.32,2117.864 999.822,2124.885 C1029.538,2137.527 1058.375,2151.898 1085.812,2168.818 C1113.554,2185.925 1140.636,2204.134 1165.048,2225.926 C1184.894,2243.642 1205.175,2260.926 1224.207,2279.485 C1248.283,2302.963 1271.33,2327.499 1294.741,2351.655 C1311.193,2368.631 1327.206,2386.044 1343.963,2402.711 C1369.227,2427.843 1394.474,2453.031 1420.662,2477.184 C1442.394,2497.228 1465.551,2515.721 1487.935,2535.066 C1516.511,2559.762 1548.651,2579.42 1580.881,2598.568 C1605.91,2613.438 1632.678,2625.614 1659.407,2637.309 C1678.395,2645.617 1698.334,2652.117 1718.347,2657.606 C1737.476,2662.854 1757.2,2666.019 1776.752,2669.615 C1800.328,2673.951 1824.181,2676.038 1848.141,2675.894 C1865.76,2675.789 1883.384,2674.91 1900.986,2674.004 C1908.916,2673.596 1916.844,2672.564 1924.691,2671.305 C1933.527,2669.887 1942.304,2668.047 1951.046,2666.117 C1964.557,2663.135 1978.358,2660.936 1991.414,2656.552 C2008.352,2650.865 2025.092,2644.208 2041.17,2636.425 C2061.762,2626.457 2082.069,2615.714 2101.666,2603.92 C2126.784,2588.802 2149.649,2570.408 2171.676,2551.074 C2181.421,2542.52 2191.206,2533.902 2200.027,2524.433 C2211.117,2512.528 2220.848,2499.362 2231.86,2487.38 C2254.718,2462.508 2272.583,2433.989 2291.672,2406.39 C2301.483,2392.204 2309.487,2376.783 2318.733,2362.189 C2337.267,2332.932 2353.223,2302.363 2367.165,2270.667 C2380.812,2239.643 2395.262,2208.972 2408.938,2177.96 C2419.687,2153.585 2429.936,2128.985 2440.156,2104.381 C2463.899,2047.219 2492.189,1992.7 2531.916,1944.727 C2534.128,1942.055 2535.76,1938.902 2537.662,1935.974 C2537.239,1935.398 2536.816,1934.822 2536.393,1934.246 C2531.378,1935.526 2526.396,1936.958 2521.343,1938.059 C2493.868,1944.047 2467.612,1953.333 2442.322,1965.708 C2416.189,1978.496 2392.026,1994.451 2367.649,2010.128 C2327.803,2035.754 2290.127,2064.293 2254.207,2095.112 C2227.706,2117.849 2206.173,2145.161 2187.478,2174.354 C2162.881,2212.763 2139.951,2252.24 2115.591,2292.523 M888.901,815.988 C901.209,825.052 913.583,834.03 925.801,843.214 C932.969,848.602 939.916,854.286 946.916,859.895 C957.289,868.208 967.838,876.318 977.916,884.976 C991.284,896.461 1003.995,908.719 1017.487,920.051 C1036.458,935.984 1053.066,954.054 1068.121,973.63 C1068.821,974.54 1068.793,976.01 1069.415,978.426 C1065.739,979.009 1062.606,980.018 1059.518,979.894 C1051.555,979.575 1043.608,978.165 1035.663,978.235 C1000.711,978.543 965.685,975.766 930.824,979.979 C912.027,982.251 893.318,985.258 874.572,987.949 C871.445,988.397 868.641,989.268 868.633,994.411 C871.59,995.948 874.929,998.001 878.505,999.484 C891.002,1004.671 903.815,1009.157 916.073,1014.846 C933.264,1022.822 950.2,1031.381 967.002,1040.156 C990.549,1052.454 1014.1,1064.776 1037.223,1077.843 C1058.322,1089.765 1079.135,1102.256 1098.715,1116.618 C1101.874,1118.935 1104.846,1121.862 1106.984,1125.113 C1108.942,1128.091 1107.662,1131.046 1103.766,1131.726 C1101.494,1132.123 1099.1,1132.114 1096.788,1131.937 C1089.174,1131.354 1081.56,1129.926 1073.969,1130.064 C1054.353,1130.421 1034.743,1131.302 1015.145,1132.264 C1006.524,1132.687 997.884,1133.451 989.347,1134.706 C974.879,1136.833 960.48,1139.439 946.068,1141.938 C944.321,1142.24 942.675,1143.123 939.165,1144.395 C942.598,1146.805 944.414,1148.762 946.64,1149.529 C960.072,1154.159 973.729,1158.161 987.06,1163.054 C1005.101,1169.676 1022.988,1176.734 1040.811,1183.928 C1066.924,1194.469 1093.216,1204.648 1118.859,1216.247 C1134.203,1223.187 1149.999,1229.616 1163.534,1240.244 C1169.759,1245.132 1177.108,1248.565 1183.539,1253.221 C1186.77,1255.561 1189.088,1259.162 1193.555,1264.121 C1187.169,1265.021 1183.44,1265.974 1179.705,1266.002 C1158.373,1266.157 1137.039,1266.028 1115.707,1266.155 C1111.408,1266.18 1107.101,1266.797 1102.817,1267.303 C1083.725,1269.56 1064.633,1271.825 1045.556,1274.205 C1040.81,1274.796 1035.577,1274.718 1031.99,1281.266 C1035.226,1282.501 1037.765,1283.551 1040.357,1284.447 C1049.112,1287.473 1057.887,1290.438 1066.649,1293.443 C1068.849,1294.198 1071.017,1295.045 1073.217,1295.797 C1091.379,1302.012 1109.574,1308.13 1127.699,1314.451 C1138.628,1318.263 1149.537,1322.161 1160.302,1326.411 C1183.458,1335.553 1206.672,1344.578 1229.557,1354.365 C1245.497,1361.182 1260.827,1369.389 1272.128,1383.187 C1274.288,1385.824 1277.307,1389.55 1276.811,1392.187 C1275.858,1397.248 1270.474,1395.799 1266.682,1395.828 C1247.35,1395.98 1228.015,1395.864 1208.684,1396.038 C1186.01,1396.242 1163.702,1399.641 1141.552,1404.221 C1138.331,1404.888 1135.863,1406.322 1137.339,1411.128 C1142.221,1412.752 1147.564,1414.382 1152.801,1416.301 C1166.457,1421.305 1180.089,1426.375 1193.686,1431.535 C1206.72,1436.481 1219.695,1441.587 1232.704,1446.6 C1248.741,1452.78 1264.87,1458.729 1280.797,1465.179 C1290.617,1469.156 1300.328,1473.51 1309.706,1478.424 C1314.568,1480.972 1319.334,1484.495 1322.815,1488.681 C1327.011,1493.727 1330.058,1499.808 1333.129,1505.687 C1337.5,1514.057 1335.767,1517.091 1326.6,1517.822 C1323.618,1518.059 1320.603,1517.884 1317.604,1517.911 C1308.605,1517.995 1299.557,1517.515 1290.619,1518.292 C1271.785,1519.93 1252.984,1522.033 1234.227,1524.394 C1229.616,1524.975 1224.067,1524.456 1220.68,1529.703 C1221.809,1533.864 1224.994,1534.966 1228.591,1536.293 C1241.967,1541.23 1255.304,1546.308 1268.449,1551.825 C1282.8,1557.848 1296.978,1564.293 1311.125,1570.786 C1325.332,1577.306 1339.379,1584.177 1353.556,1590.764 C1359.107,1593.342 1362.646,1597.49 1364.045,1603.331 C1364.967,1607.183 1366.031,1611.17 1365.932,1615.069 C1365.388,1636.63 1368.286,1658.326 1362.375,1679.687 C1358.593,1693.353 1357.52,1707.903 1352.642,1721.099 C1345.646,1740.025 1336.581,1758.17 1324.875,1774.906 C1310.538,1795.403 1295.607,1815.031 1276.16,1831.338 C1255.897,1848.33 1234.485,1863.161 1210.878,1874.886 C1198.983,1880.794 1186.844,1886.213 1174.928,1892.081 C1172.942,1893.06 1171.531,1895.207 1169.318,1897.328 C1171.746,1898.836 1172.759,1899.699 1173.93,1900.158 C1197.372,1909.353 1220.704,1918.853 1244.339,1927.522 C1257.724,1932.432 1271.512,1936.356 1285.312,1939.986 C1295.244,1942.599 1305.436,1944.44 1315.623,1945.804 C1325.816,1947.168 1336.289,1946.7 1346.384,1948.48 C1364.607,1951.695 1382.396,1947.952 1399.74,1944.509 C1417.84,1940.915 1435.599,1934.388 1452.684,1927.19 C1475.903,1917.408 1496,1902.381 1512.894,1883.66 C1520.653,1875.063 1526.9,1865.082 1533.655,1855.603 C1546.878,1837.05 1555.764,1816.431 1562.031,1794.642 C1566.146,1780.337 1568.322,1765.613 1571.262,1751.066 C1576.697,1724.17 1572.85,1697.937 1569.069,1671.746 C1566.974,1657.232 1564.083,1642.537 1558.393,1628.601 C1551.902,1612.703 1547.725,1595.774 1540.324,1580.358 C1531.597,1562.179 1521.295,1544.614 1510.21,1527.746 C1497.438,1508.311 1483.716,1489.409 1469.215,1471.226 C1452.644,1450.444 1435.107,1430.398 1417.353,1410.603 C1398.917,1390.047 1379.72,1370.173 1360.856,1350.001 C1341.309,1329.098 1321.649,1308.298 1302.254,1287.254 C1289.859,1273.805 1277.043,1260.625 1265.854,1246.208 C1245.515,1220 1224.634,1194.182 1207.475,1165.569 C1196.015,1146.46 1184.65,1127.374 1176.03,1106.83 C1170.668,1094.051 1165.809,1081.014 1161.587,1067.817 C1158.081,1056.858 1155.811,1045.502 1153.04,1034.31 C1148.391,1015.536 1145.088,996.613 1145.841,977.13 C1146.202,967.81 1145.246,958.403 1146.099,949.148 C1147.284,936.291 1149.518,923.524 1151.488,910.748 C1152.396,904.858 1153.067,898.798 1155.031,893.234 C1159.426,880.777 1164.759,868.656 1169.357,856.267 C1178.067,832.793 1192.538,812.852 1208.872,794.483 C1229.807,770.941 1254.516,752.091 1283.72,739.277 C1300.321,731.993 1317.424,727.034 1335.188,724.215 C1353.253,721.348 1371.39,718.835 1389.787,719.874 C1390.448,719.911 1391.128,719.872 1391.781,719.76 C1397.654,718.75 1399.292,715.216 1395.54,710.779 C1393.216,708.03 1390.21,705.79 1387.282,703.632 C1378.714,697.317 1370.069,691.104 1361.378,684.957 C1356.223,681.311 1351.182,677.391 1345.651,674.407 C1305.111,652.536 1262.713,635.541 1217.292,626.884 C1208.177,625.147 1198.69,625.246 1189.652,623.246 C1171.658,619.265 1153.437,618.266 1135.172,618.086 C1124.238,617.978 1113.298,619.586 1102.346,619.899 C1071.849,620.773 1042.317,626.751 1013.461,636.315 C1010.722,637.223 1008.507,639.711 1005.783,641.654 C1009.208,646.247 1011.571,649.885 1014.391,653.125 C1035.378,677.243 1054.994,702.358 1072.424,729.227 C1084.554,747.925 1096.52,766.64 1105.894,786.915 C1108.697,792.977 1109.009,798.829 1105.955,806.007 C1096.095,804.225 1086.405,802.455 1076.706,800.737 C1074.747,800.39 1072.749,800.266 1070.776,799.994 C1058.308,798.274 1045.851,796.481 1033.375,794.833 C1025.162,793.749 1016.925,792.847 1008.694,791.905 C1004.736,791.453 1000.772,791.04 996.802,790.705 C985.877,789.783 974.959,788.747 964.019,788.052 C930.998,785.954 898.259,791.207 865.348,792.077 C863.888,792.115 862.451,793.034 859.158,794.192 C868.824,802.771 878.354,808.865 888.901,815.988 M1668.626,2074.279 C1665.076,2073.502 1661.469,2072.918 1657.987,2071.906 C1651.96,2070.154 1646.017,2068.114 1640.026,2066.235 C1629.011,2062.781 1617.774,2059.909 1607.019,2055.781 C1593.108,2050.443 1579.41,2044.466 1565.929,2038.111 C1551.83,2031.464 1538.011,2024.338 1525.36,2014.91 C1519.617,2010.63 1513.276,2006.069 1503.59,2003.615 C1504.784,2008.873 1505.098,2012.331 1506.384,2015.38 C1507.92,2019.021 1510.282,2022.316 1512.297,2025.754 C1524.56,2046.685 1536.623,2067.737 1549.15,2088.508 C1560.687,2107.637 1574.986,2124.738 1589.187,2141.93 C1606.436,2162.812 1625.55,2181.86 1646.524,2198.785 C1675.12,2221.862 1706.406,2240.413 1741.675,2252.102 C1760.994,2258.504 1780.758,2263.998 1800.629,2265.211 C1827.348,2266.843 1854.528,2269.256 1881.203,2262.736 C1888.905,2260.853 1896.89,2259.989 1904.445,2257.678 C1918.051,2253.515 1931.761,2249.384 1944.81,2243.798 C1957.265,2238.466 1968.964,2231.356 1980.941,2224.925 C2005.461,2211.759 2026.552,2193.853 2047.122,2175.499 C2067.265,2157.525 2084.672,2136.88 2100.622,2115.064 C2106.509,2107.011 2112.672,2099.144 2118.236,2090.874 C2127.863,2076.562 2137.334,2062.135 2146.467,2047.505 C2153.85,2035.678 2160.655,2023.489 2167.687,2011.444 C2179.741,1990.797 2191.712,1970.102 2203.829,1949.493 C2215.097,1930.328 2226.486,1911.234 2237.879,1892.143 C2240.266,1888.143 2242.975,1884.337 2245.413,1880.366 C2253.931,1866.495 2261.723,1852.121 2271.035,1838.808 C2285.518,1818.1 2300.412,1797.615 2316.248,1777.933 C2334.986,1754.643 2352.849,1730.525 2374.893,1710.054 C2386.352,1699.412 2397.495,1688.424 2409.123,1677.973 C2419.739,1668.432 2430.85,1659.443 2441.654,1650.108 C2443.369,1648.627 2444.615,1646.602 2446.078,1644.829 C2445.647,1644.222 2445.216,1643.615 2444.784,1643.008 C2438.103,1644.364 2431.211,1645.085 2424.782,1647.207 C2410.377,1651.96 2395.921,1656.753 2381.995,1662.718 C2355.499,1674.068 2329.055,1685.63 2303.172,1698.293 C2284.41,1707.473 2266.495,1718.411 2248.383,1728.88 C2239.458,1734.038 2230.919,1739.871 2222.248,1745.464 C2210.239,1753.211 2197.785,1760.375 2186.402,1768.956 C2170.486,1780.955 2155.15,1793.759 2139.992,1806.716 C2123.063,1821.187 2106.203,1835.784 2090.04,1851.094 C2060.538,1879.04 2034.27,1910.07 2006.599,1939.766 C1982.124,1966.031 1956.952,1991.741 1928.909,2014.509 C1901.778,2036.537 1872.079,2053.665 1839.391,2065.561 C1808.179,2076.921 1775.742,2082.086 1742.551,2081.961 C1731.942,2081.921 1721.301,2081.041 1710.742,2079.911 C1697.223,2078.466 1683.772,2076.381 1668.626,2074.279 M2124.502,911.64 C2113.439,916.203 2102.251,920.49 2091.366,925.444 C2086.006,927.883 2081.355,928.071 2076.211,925.245 C2070.67,922.201 2065.077,919.061 2059.155,916.946 C2049.089,913.352 2044.033,916.769 2042.014,927.008 C2040.423,935.073 2039.106,943.347 2036.172,950.951 C2032.896,959.44 2035.203,965.708 2040.706,971.869 C2051.089,983.491 2064.172,991.644 2077.462,999.14 C2094.691,1008.858 2110.158,1020.826 2124.661,1033.974 C2137.94,1046.013 2150.311,1058.883 2160.116,1074.338 C2166.143,1083.837 2171.079,1093.61 2173.189,1104.187 C2176.163,1119.091 2179.766,1134.128 2178.097,1149.652 C2177.708,1153.263 2178.026,1156.988 2178.35,1160.63 C2180.206,1181.457 2182.14,1202.277 2184.113,1223.094 C2184.329,1225.381 2184.805,1227.674 2185.431,1229.888 C2187.497,1237.19 2190.348,1244.335 2191.701,1251.759 C2195.121,1270.522 2202.458,1287.908 2210.154,1305.08 C2218.311,1323.282 2229.914,1339.512 2240.891,1356.156 C2252.7,1374.059 2267.288,1389.45 2280.817,1405.81 C2285.899,1411.954 2291.323,1417.825 2296.775,1423.648 C2299.415,1426.469 2302.285,1429.33 2307.504,1428.496 C2307.293,1426.274 2307.552,1424.234 2306.872,1422.581 C2301.594,1409.759 2295.929,1397.094 2290.816,1384.208 C2288.021,1377.164 2286.208,1369.738 2283.706,1362.57 C2278.133,1346.608 2272.585,1330.653 2269.785,1313.897 C2268.204,1304.437 2266.416,1295.011 2264.861,1285.546 C2263.79,1279.026 2262.682,1272.491 2262.082,1265.918 C2261.237,1256.662 2260.733,1247.37 2260.311,1238.083 C2260.084,1233.102 2259.984,1228.066 2260.437,1223.111 C2261.464,1211.876 2262.803,1200.667 2264.19,1189.469 C2264.406,1187.729 2265.544,1186.103 2266.565,1183.693 C2269.108,1185.357 2271.174,1186.346 2272.792,1187.825 C2290.054,1203.59 2304.613,1221.664 2318.335,1240.532 C2337.385,1266.727 2351.987,1295.473 2367.195,1323.889 C2367.978,1325.352 2368.895,1326.759 2369.522,1328.286 C2373.928,1339.023 2377.973,1349.923 2382.802,1360.464 C2384.507,1364.184 2386.027,1369.424 2391.989,1369.25 C2393.839,1363.258 2395.036,1339.618 2393.626,1331.31 C2390.413,1312.372 2387.278,1293.41 2383.467,1274.588 C2381.113,1262.958 2378.324,1251.305 2374.386,1240.136 C2369.012,1224.898 2361.853,1210.293 2356.381,1195.084 C2349.814,1176.831 2340.12,1160.172 2330.058,1143.914 C2318.743,1125.631 2305.962,1108.126 2292.509,1091.333 C2280.702,1076.595 2267.833,1062.511 2254.067,1049.595 C2238.835,1035.303 2222.131,1022.568 2205.9,1009.36 C2200.24,1004.754 2194.182,1000.611 2188.129,996.52 C2178.271,989.856 2168.126,983.609 2158.381,976.788 C2153.094,973.087 2152.915,970.015 2157.592,965.352 C2170,952.977 2176.695,937.371 2181.976,921.265 C2187.251,905.178 2191.199,888.647 2195.441,872.236 C2196.747,867.182 2197.109,861.884 2197.888,856.799 C2183.486,868.934 2170.229,880.92 2156.081,891.739 C2146.628,898.968 2135.905,904.537 2124.502,911.64 M2259.406,2004.908 C2259.569,2004.017 2259.733,2003.126 2259.897,2002.234 C2259.404,2002.85 2258.911,2003.465 2259.406,2004.908 z"/><path fill="#BECED4" d=" M1802.856,2748 C1802,2748 1801.925,2747.134 1801.911,2746.7 C1805.66,2746.382 1809.423,2746.498 1813.593,2747.307 C1810.571,2748 1807.142,2748 1802.856,2748 z"/><path fill="#BECED4" d=" M1897.289,2746.147 C1898.101,2746.265 1898.074,2747.134 1898.037,2747.567 C1894.571,2748 1891.142,2748 1886.856,2748 C1889.492,2747.343 1892.984,2746.686 1897.289,2746.147 z"/><path fill="#1A926F" d=" M1955.201,751.044 C1957.631,759.485 1959.564,767.222 1962.058,774.773 C1969.482,797.25 1980.346,818.211 1991.081,839.203 C1993.492,843.916 1996.649,848.312 1999.905,852.511 C2005.047,859.143 2008.826,859.558 2016.184,855.123 C2022.442,851.351 2028.667,847.509 2035.085,844.027 C2037.177,842.892 2039.829,842.791 2042.275,842.206 C2046.852,852.189 2041.037,859.342 2037.961,866.62 C2034.235,875.435 2029.135,883.667 2024.649,892.161 C2020.177,900.629 2015.546,909.021 2011.346,917.623 C2009.322,921.77 2008.298,926.392 2006.525,930.676 C2002.355,940.75 1997.448,950.554 1993.849,960.821 C1986.814,980.894 1982.175,1001.64 1978.136,1022.51 C1975.455,1036.368 1982.241,1045.069 1993.31,1052.182 C2010.681,1063.345 2029.701,1068.839 2050.013,1067.645 C2062.443,1066.913 2074.715,1063.22 2087.015,1060.655 C2092.338,1059.545 2097.45,1056.01 2104.12,1060.113 C2100.108,1066.684 2096.479,1073.158 2092.348,1079.295 C2080.006,1097.631 2063.61,1111.89 2043.801,1121.018 C2031.644,1126.62 2017.917,1129.614 2004.571,1131.649 C1984.187,1134.756 1963.927,1130.555 1944.429,1125.098 C1933.133,1121.938 1922.853,1114.995 1912.277,1109.446 C1890.022,1097.768 1873.054,1079.634 1856.916,1061.165 C1846.292,1049.006 1837.994,1034.609 1829.884,1020.507 C1818.806,1001.244 1808.766,981.376 1798.528,961.639 C1789.981,945.161 1781.131,928.792 1773.608,911.845 C1764.343,890.973 1754.883,870.199 1744.25,850.019 C1730.633,824.178 1716.377,798.669 1702.104,773.18 C1694.961,760.423 1687.64,747.717 1679.563,735.542 C1665.418,714.218 1651.159,692.93 1635.945,672.368 C1623.312,655.295 1609.513,639.055 1595.723,622.877 C1583.434,608.46 1570.755,594.346 1557.7,580.618 C1538.662,560.598 1518.299,541.951 1496.827,524.543 C1487.798,517.223 1479.027,509.534 1469.588,502.784 C1454.5,491.995 1439.11,481.606 1423.55,471.506 C1410.508,463.04 1397.117,455.101 1383.725,447.192 C1378.304,443.99 1372.478,441.474 1366.823,438.672 C1364.743,437.641 1362.381,437.009 1360.563,435.643 C1340.691,420.716 1317.758,423.75 1295.254,424.436 C1285.379,424.737 1275.5,425.236 1265.651,425.996 C1239.179,428.038 1212.71,430.132 1186.264,432.478 C1171.086,433.825 1155.898,435.299 1140.817,437.443 C1122.728,440.015 1104.772,443.512 1086.717,446.34 C1054.675,451.359 1024.266,462.502 993.376,471.658 C977.917,476.241 963.472,484.317 948.678,491.055 C929.313,499.874 910.598,509.889 893.274,522.342 C888.695,525.634 884.196,529.041 879.562,532.254 C856.822,548.019 835.963,566.08 817.146,586.244 C799.932,604.689 783.219,623.682 771.292,646.346 C767.011,654.48 760.162,661.282 756.031,669.472 C746.653,688.066 737.748,706.937 729.623,726.108 C725.373,736.135 722.973,746.977 720.102,757.551 C716.281,771.629 712.817,785.803 709.196,799.936 C709.03,800.581 708.689,801.215 708.674,801.86 C708.016,830.398 701.526,858.614 704.101,887.342 C705.019,897.589 705.182,907.902 706.027,918.157 C706.543,924.406 707.76,930.595 708.556,936.824 C709.313,942.744 709.543,948.758 710.689,954.596 C713.634,969.596 716.6,984.609 720.261,999.443 C722.633,1009.053 726.158,1018.385 729.312,1027.792 C740.515,1061.207 756.221,1092.661 771.781,1124.147 C776.758,1134.219 782.916,1143.73 788.857,1153.296 C797.806,1167.704 806.487,1182.327 816.289,1196.143 C829.158,1214.282 842.859,1231.84 856.476,1249.437 C868.436,1264.892 880.516,1280.27 893.012,1295.293 C906.613,1311.643 921.219,1327.172 934.489,1343.776 C942.755,1354.119 953.471,1362.302 959.973,1374.257 C962.912,1379.661 968.238,1383.744 972.36,1388.531 C981.883,1399.589 991.557,1410.529 1000.743,1421.863 C1008.445,1431.366 1015.562,1441.344 1022.902,1451.139 C1027.092,1456.73 1031.458,1462.21 1035.316,1468.025 C1047.42,1486.266 1059.617,1504.46 1068.128,1524.801 C1070.56,1530.613 1073.799,1536.088 1076.239,1541.898 C1084.151,1560.734 1086.749,1580.477 1088.768,1600.794 C1090.526,1618.484 1087.676,1635.286 1085.647,1652.3 C1083.192,1672.896 1072.388,1690.174 1060.43,1706.705 C1048.936,1722.594 1034.296,1735.537 1018.167,1745.853 C1003.846,1755.014 989.112,1764.557 971.944,1768.527 C969.057,1769.195 966.369,1770.702 963.569,1771.771 C944.447,1779.068 924.319,1781.574 904.195,1783.782 C887.685,1785.593 871.092,1787.597 854.523,1787.706 C827.585,1787.884 800.592,1787.331 773.705,1785.714 C741.156,1783.757 708.638,1782.014 676.018,1781.847 C649.076,1781.709 622.138,1780.26 595.198,1780.279 C581.624,1780.289 568.051,1782.263 554.479,1783.362 C552.821,1783.496 551.173,1783.795 549.514,1783.866 C531.572,1784.63 513.612,1785.099 495.694,1786.239 C488.782,1786.679 481.975,1788.678 475.103,1789.866 C457.426,1792.922 439.691,1795.66 422.07,1799.006 C396.995,1803.769 371.941,1808.685 346.997,1814.085 C334.354,1816.822 321.868,1820.424 309.495,1824.233 C286.318,1831.367 263.186,1838.674 240.213,1846.436 C228.589,1850.363 217.435,1855.661 205.905,1859.894 C200.76,1861.783 195.213,1862.575 187.572,1864.412 C188.93,1859.811 189.051,1856.798 190.535,1854.794 C199.631,1842.511 208.721,1830.197 218.406,1818.38 C236.355,1796.482 255.763,1776.008 277.19,1757.355 C296.318,1740.703 316.271,1725.247 337.667,1711.737 C349.447,1704.299 361.792,1697.686 374.219,1691.362 C389.27,1683.703 404.225,1675.478 420.054,1669.834 C436.171,1664.087 451.554,1656.074 468.88,1653.467 C478.918,1651.957 488.793,1648.683 498.42,1645.289 C513.253,1640.059 528.712,1638.408 544.047,1635.858 C557.129,1633.682 570.146,1631.117 583.194,1628.735 C584.502,1628.497 585.818,1628.209 587.14,1628.148 C603.079,1627.414 619.028,1626.869 634.958,1625.981 C669.118,1624.077 703.454,1623.811 737.199,1617.458 C755.866,1613.944 774.328,1608.778 790.114,1597.685 C811.823,1582.43 820.94,1562.81 816.846,1534.771 C813.284,1510.377 800.075,1491.317 784.439,1474.097 C770.23,1458.447 753.568,1445.027 738.02,1430.589 C725.879,1419.313 714.128,1407.586 701.54,1396.838 C694.817,1391.098 686.89,1386.654 679.156,1382.239 C658.379,1370.375 637.366,1358.925 616.542,1347.141 C605.841,1341.085 595.22,1334.868 584.781,1328.372 C559.652,1312.737 535.351,1295.847 512.415,1277.165 C492.584,1261.012 473.494,1243.947 454.167,1227.179 C447.136,1221.079 439.569,1215.345 433.64,1208.275 C419.121,1190.962 401.509,1176.443 389.09,1157.166 C382.48,1146.907 373.061,1138.502 365.788,1128.614 C357.349,1117.141 349.34,1105.275 342.091,1093.019 C328.403,1069.874 315.199,1046.434 302.228,1022.877 C298.746,1016.552 296.815,1009.371 294.205,1002.57 C292.909,999.194 291.576,995.826 290.448,992.393 C283.527,971.328 276.79,950.202 269.74,929.181 C262.847,908.628 259.03,887.316 256.554,866.002 C253.957,843.643 251.719,821.195 251.491,798.483 C251.221,771.531 253.735,744.781 254.421,717.924 C254.758,704.756 257.886,691.601 260.382,678.561 C263.193,663.877 265.758,649.029 270.209,634.809 C274.331,621.637 276.212,607.78 282.836,595.258 C286.63,588.085 287.747,579.55 290.816,571.93 C295.894,559.324 301.636,546.988 306.99,534.492 C319.064,506.31 334.306,479.777 351.292,454.424 C366.235,432.121 382.948,410.969 399.507,389.799 C407.271,379.874 416.352,370.949 425.129,361.853 C434.571,352.068 444.041,342.268 454.069,333.099 C467.555,320.768 481.53,308.967 495.407,297.068 C504.485,289.284 513.589,281.512 523.01,274.155 C528.729,269.687 535.082,266.031 541.135,261.989 C557.71,250.92 574.007,239.407 590.915,228.875 C612.031,215.721 633.792,203.647 656.498,193.36 C681.885,181.86 706.975,169.665 732.651,158.858 C753.437,150.109 774.719,142.428 796.118,135.284 C813.724,129.406 831.848,125.089 849.701,119.937 C866.593,115.062 883.399,109.884 900.318,105.105 C904.429,103.944 908.868,104.001 913.1,103.196 C941.798,97.738 970.353,91.346 999.215,86.983 C1018.852,84.013 1038.382,80.133 1058.5,79.658 C1083.706,79.064 1108.853,76.104 1134.036,74.305 C1146.631,73.405 1159.255,72.113 1171.856,72.217 C1206.371,72.5 1240.917,72.676 1275.382,74.336 C1304.219,75.725 1332.954,79.191 1361.744,81.629 C1366.383,82.022 1371.094,81.586 1375.727,82.013 C1379.976,82.404 1384.168,83.424 1388.379,84.204 C1391.304,84.746 1394.235,85.914 1397.134,85.827 C1408.223,85.495 1418.905,87.558 1429.739,89.656 C1444.701,92.552 1459.937,94.029 1475.045,96.187 C1478.334,96.657 1481.715,97.055 1484.819,98.151 C1492.777,100.963 1500.979,101.426 1509.287,102.276 C1520.091,103.382 1530.709,106.339 1541.393,108.565 C1549.827,110.322 1558.266,112.067 1566.656,114.02 C1579.587,117.029 1592.446,120.349 1605.393,123.282 C1618.605,126.274 1631.925,128.792 1645.127,131.826 C1657.699,134.714 1670.141,138.164 1682.71,141.062 C1693.999,143.664 1705.384,145.848 1716.724,148.23 C1718.026,148.504 1719.306,148.881 1720.602,149.188 C1744.209,154.791 1767.908,160.042 1791.392,166.123 C1805.11,169.675 1818.426,174.758 1832.041,178.747 C1839.036,180.796 1846.417,181.532 1853.403,183.605 C1867.017,187.644 1881.208,190.724 1893.806,196.944 C1908.171,204.038 1924.326,205.373 1938.309,213.285 C1945.105,217.13 1953.202,218.598 1960.493,221.659 C1986.745,232.682 2012.281,245.201 2037.572,258.289 C2052.105,265.809 2065.471,275.003 2079.211,283.738 C2097.367,295.28 2116.262,305.666 2134.91,316.427 C2155.053,328.051 2174.905,340.266 2195.606,350.807 C2208.183,357.211 2220.924,363.525 2235.004,367.116 C2250.701,371.119 2265.633,378.027 2281.118,382.983 C2292.15,386.514 2303.621,388.652 2314.765,391.866 C2334.876,397.668 2355.047,403.336 2374.904,409.932 C2399.552,418.119 2421.642,430.749 2438.257,451.325 C2447.608,462.904 2453.037,475.951 2454.375,491.202 C2455.496,503.969 2455.608,516.471 2452.145,528.652 C2450.005,536.183 2446.29,543.371 2442.535,550.309 C2438.861,557.097 2435.73,563.587 2435.725,571.726 C2435.716,585.003 2436.408,598.725 2433.395,611.451 C2429.059,629.765 2425.591,648.31 2418.022,666.044 C2409.489,686.04 2399.742,705.08 2386.867,722.377 C2374.015,739.643 2360,755.965 2342.949,769.5 C2326.701,782.398 2309.307,793.285 2290.624,802.21 C2288.85,803.058 2287.224,804.268 2285.644,805.461 C2278.657,810.735 2277.125,811.006 2266.218,808.031 C2268.988,804.023 2271.811,800.49 2274.038,796.615 C2282.642,781.651 2291.753,766.92 2299.35,751.452 C2307.527,734.804 2315.204,717.9 2320.157,699.793 C2325.157,681.516 2329.013,663.169 2330.079,644.259 C2330.579,635.401 2331.047,626.54 2331.347,617.674 C2331.51,612.868 2329.267,610.326 2324.158,610.1 C2317.173,609.79 2310.157,609.839 2303.169,610.109 C2297.383,610.333 2293.066,612.832 2291.322,618.937 C2289.056,626.862 2286.505,634.707 2283.994,642.56 C2283.094,645.376 2282.2,648.239 2280.879,650.868 C2271.81,668.913 2263.051,687.119 2251.081,703.55 C2229.616,733.013 2203.635,757.34 2171.392,774.717 C2165.548,777.867 2160.083,781.786 2154.073,784.545 C2148.11,787.283 2141.733,789.183 2135.418,791.048 C2133.804,791.525 2130.56,790.994 2130.141,790.026 C2129.377,788.264 2129.449,785.397 2130.438,783.753 C2133.84,778.1 2137.817,772.794 2141.524,767.322 C2147.471,758.544 2152.852,749.52 2157.829,740.067 C2167.967,720.814 2175.63,700.721 2180.58,679.784 C2183.911,665.693 2184.697,650.933 2185.788,636.41 C2186.311,629.432 2184.027,627.989 2177.464,629.28 C2161.496,632.422 2145.622,636.062 2129.614,638.981 C2118.184,641.066 2106.598,642.291 2095.085,643.932 C2091.146,644.494 2087.24,645.342 2083.286,645.724 C2078.733,646.163 2074.131,646.083 2069.574,646.498 C2063.633,647.039 2057.719,647.889 2051.785,648.523 C2046.51,649.086 2041.224,649.539 2035.942,650.032 C2029.337,650.648 2022.737,651.318 2016.126,651.852 C2006.609,652.619 1997.046,652.969 1987.577,654.105 C1981.336,654.854 1975.159,656.436 1969.07,658.075 C1961.52,660.108 1956.706,665.186 1953.427,672.313 C1949.438,680.982 1947.241,689.801 1947.873,699.381 C1948.223,704.692 1948.167,710.05 1947.961,715.374 C1947.486,727.587 1951.619,738.832 1955.201,751.044 M2032.248,404.739 C2021.69,397.513 2011.191,390.183 1997.836,383.812 C1999.329,398.131 1996.194,409.915 1992.391,421.605 C1988.242,434.358 1979.595,443.131 1968.302,449.732 C1964.906,451.717 1961.809,451.577 1959.431,448.469 C1955.011,442.692 1950.249,437.051 1946.722,430.741 C1940.549,419.699 1937.651,407.705 1941.798,395.248 C1944.298,387.742 1947.54,380.39 1951.283,373.417 C1955.651,365.279 1960.928,357.629 1966.449,348.741 C1960.4,344.514 1955.093,339.929 1949.049,336.741 C1928.103,325.692 1906.474,316.431 1882.823,312.548 C1859.175,308.666 1835.559,304.817 1811.468,305.904 C1807.94,306.063 1804.421,306.439 1800.197,306.77 C1799.362,313.616 1798.125,319.496 1798.023,325.396 C1797.732,342.046 1797.479,358.719 1798.099,375.35 C1798.365,382.509 1800.128,389.817 1802.409,396.658 C1809.289,417.296 1822.726,433.864 1836.775,449.983 C1849.71,464.823 1865.85,474.135 1885.048,478.183 C1892.191,479.689 1899.352,481.193 1906.571,482.247 C1937.438,486.756 1967.512,485.045 1996.39,471.638 C2013.515,463.687 2029.445,454.19 2041.374,439.394 C2051.873,426.371 2053.157,420.148 2039.048,409.718 C2037.176,408.335 2035.308,406.946 2032.248,404.739 M1952.935,905.951 C1967.035,892.11 1966.437,886.131 1950.629,876.644 C1939.286,869.837 1927.967,862.914 1917.177,855.279 C1898.248,841.885 1878.312,829.821 1861.275,813.841 C1860.182,812.816 1857.53,812.698 1855.964,813.227 C1855.085,813.524 1854.299,816.145 1854.576,817.492 C1856.381,826.262 1857.808,835.196 1860.629,843.653 C1868.168,866.255 1876.038,888.76 1884.436,911.056 C1887.557,919.34 1892.036,927.232 1896.759,934.763 C1902.109,943.294 1906.099,943.424 1913.702,937.29 C1926.357,927.08 1939.158,917.05 1952.935,905.951 M2304.854,477.936 C2295.333,474.233 2285.727,470.731 2276.315,466.767 C2267.264,462.955 2260.174,466.713 2260.204,476.473 C2260.226,483.682 2261.004,491.079 2262.788,498.049 C2265.82,509.894 2279.452,518.779 2289.543,516.422 C2298.912,514.235 2306.272,508.696 2312.841,502.023 C2316.82,497.982 2317.172,492.864 2314.482,488.27 C2312.39,484.696 2308.925,481.924 2304.854,477.936 z"/><path fill="#1A926F" d=" M2115.948,2291.89 C2139.951,2252.24 2162.881,2212.763 2187.478,2174.354 C2206.173,2145.161 2227.706,2117.849 2254.207,2095.112 C2290.127,2064.293 2327.803,2035.754 2367.649,2010.128 C2392.026,1994.451 2416.189,1978.496 2442.322,1965.708 C2467.612,1953.333 2493.868,1944.047 2521.343,1938.059 C2526.396,1936.958 2531.378,1935.526 2536.393,1934.246 C2536.816,1934.822 2537.239,1935.398 2537.662,1935.974 C2535.76,1938.902 2534.128,1942.055 2531.916,1944.727 C2492.189,1992.7 2463.899,2047.219 2440.156,2104.381 C2429.936,2128.985 2419.687,2153.585 2408.938,2177.96 C2395.262,2208.972 2380.812,2239.643 2367.165,2270.667 C2353.223,2302.363 2337.267,2332.932 2318.733,2362.189 C2309.487,2376.783 2301.483,2392.204 2291.672,2406.39 C2272.583,2433.989 2254.718,2462.508 2231.86,2487.38 C2220.848,2499.362 2211.117,2512.528 2200.027,2524.433 C2191.206,2533.902 2181.421,2542.52 2171.676,2551.074 C2149.649,2570.408 2126.784,2588.802 2101.666,2603.92 C2082.069,2615.714 2061.762,2626.457 2041.17,2636.425 C2025.092,2644.208 2008.352,2650.865 1991.414,2656.552 C1978.358,2660.936 1964.557,2663.135 1951.046,2666.117 C1942.304,2668.047 1933.527,2669.887 1924.691,2671.305 C1916.844,2672.564 1908.916,2673.596 1900.986,2674.004 C1883.384,2674.91 1865.76,2675.789 1848.141,2675.894 C1824.181,2676.038 1800.328,2673.951 1776.752,2669.615 C1757.2,2666.019 1737.476,2662.854 1718.347,2657.606 C1698.334,2652.117 1678.395,2645.617 1659.407,2637.309 C1632.678,2625.614 1605.91,2613.438 1580.881,2598.568 C1548.651,2579.42 1516.511,2559.762 1487.935,2535.066 C1465.551,2515.721 1442.394,2497.228 1420.662,2477.184 C1394.474,2453.031 1369.227,2427.843 1343.963,2402.711 C1327.206,2386.044 1311.193,2368.631 1294.741,2351.655 C1271.33,2327.499 1248.283,2302.963 1224.207,2279.485 C1205.175,2260.926 1184.894,2243.642 1165.048,2225.926 C1140.636,2204.134 1113.554,2185.925 1085.812,2168.818 C1058.375,2151.898 1029.538,2137.527 999.822,2124.885 C983.32,2117.864 966.12,2113.209 949.176,2107.636 C915.009,2096.398 879.949,2089.053 844.552,2083.296 C828.84,2080.741 812.881,2079.695 797.026,2078.033 C789.429,2077.237 781.829,2076.293 774.206,2075.958 C755.599,2075.137 736.982,2074.418 718.362,2074.067 C702.702,2073.771 687.014,2073.613 671.369,2074.208 C657.446,2074.736 643.568,2076.41 629.665,2077.522 C619.064,2078.37 608.396,2078.667 597.861,2080.016 C568.849,2083.732 539.996,2088.149 511.415,2094.798 C485.956,2100.719 461.044,2108.346 436.457,2116.777 C407.232,2126.798 378.948,2139.411 353.914,2158.122 C333.96,2173.036 316.204,2190.052 305.989,2213.262 C294.182,2240.089 293.784,2267.373 309.126,2292.704 C318.363,2307.953 332.835,2318.658 350.574,2323.728 C377.247,2331.351 403.427,2330.086 429.908,2321.458 C450.838,2314.638 470.706,2305.616 490.276,2295.946 C506.042,2288.155 520.81,2278.37 536.221,2269.832 C558.583,2257.442 580.809,2244.744 603.684,2233.363 C624.431,2223.041 645.584,2213.274 667.281,2205.206 C683.619,2199.13 701.093,2196.098 718.077,2191.771 C724.17,2190.219 730.255,2188.536 736.439,2187.453 C747.559,2185.504 758.698,2183.165 769.924,2182.427 C790.1,2181.1 810.226,2177.947 830.611,2181.587 C841.345,2183.503 852.503,2182.906 863.408,2184.041 C872.651,2185.004 881.855,2186.561 890.988,2188.313 C921.66,2194.2 951.383,2203.214 980.427,2214.778 C1023.528,2231.939 1063.966,2254.025 1102.488,2279.671 C1120.467,2291.64 1138.191,2304.059 1155.381,2317.129 C1167.531,2326.366 1178.612,2337.013 1190.129,2347.079 C1200.14,2355.831 1210.112,2364.628 1220.056,2373.458 C1222.292,2375.444 1224.345,2377.639 1226.466,2379.754 C1231.138,2384.414 1235.888,2389.001 1240.439,2393.777 C1243.921,2397.431 1249.422,2399.779 1249.307,2406.807 C1247.152,2406.984 1244.994,2407.837 1243.531,2407.17 C1235.102,2403.324 1226.887,2399.016 1218.508,2395.056 C1201.109,2386.835 1183.836,2378.31 1166.166,2370.711 C1150.682,2364.052 1134.807,2358.27 1118.963,2352.489 C1087.687,2341.077 1055.793,2331.635 1023.172,2325.003 C1009.883,2322.301 995.959,2322.607 982.758,2319.624 C961.938,2314.918 941.008,2316.326 920.081,2316.181 C914.141,2316.14 908.174,2317.094 902.252,2317.853 C883.477,2320.258 864.914,2323.737 846.38,2327.683 C821.783,2332.92 798.579,2341.801 775.582,2351.561 C740.562,2366.423 708.674,2386.731 676.823,2407.254 C653.075,2422.557 628.621,2436.777 604.294,2451.162 C582.555,2464.016 560.594,2476.496 538.665,2489.026 C517.311,2501.229 494.717,2510.76 471.825,2519.619 C443.712,2530.499 414.283,2536.394 384.572,2539.593 C350.363,2543.275 316.299,2540.58 282.809,2531.454 C256.048,2524.162 230.565,2513.817 206.744,2499.931 C193.615,2492.277 181.271,2482.781 169.997,2472.546 C148.788,2453.291 128.907,2432.706 113.367,2408.276 C100.054,2387.345 90.309,2364.924 83.436,2341.211 C78.055,2322.643 74.263,2303.781 73.895,2284.314 C73.732,2275.696 71.774,2267.047 72.204,2258.492 C73.541,2231.895 76.868,2205.588 84.889,2179.979 C97.155,2140.814 115.818,2105.35 142.633,2074.071 C158.74,2055.282 176.828,2038.8 195.487,2022.647 C214.503,2006.185 236.066,1993.701 257.305,1980.89 C283.693,1964.973 312.16,1953.01 340.793,1941.39 C363.401,1932.214 386.649,1925.438 409.877,1918.503 C432.373,1911.786 455.047,1905.276 478.051,1900.75 C508.299,1894.799 538.901,1890.56 569.44,1886.217 C584.546,1884.069 599.899,1883.712 615.062,1881.895 C660.186,1876.486 705.488,1877.829 750.743,1878.234 C767.649,1878.385 784.538,1880.47 801.432,1881.723 C808.391,1882.239 815.351,1882.779 822.292,1883.495 C836.169,1884.929 850.085,1886.124 863.887,1888.106 C876.977,1889.987 889.938,1892.767 902.963,1895.112 C911.435,1896.637 919.967,1897.869 928.389,1899.628 C941.686,1902.406 954.998,1905.192 968.148,1908.578 C980.96,1911.877 993.727,1915.496 1006.248,1919.756 C1027.917,1927.128 1049.609,1934.535 1070.868,1942.989 C1091.765,1951.3 1112.546,1960.117 1132.621,1970.216 C1152.472,1980.204 1171.199,1992.401 1190.746,2003.027 C1211.927,2014.541 1229.912,2030.495 1249.641,2043.983 C1276.395,2062.272 1300.458,2083.698 1324.328,2105.347 C1348.236,2127.03 1371.876,2149.072 1394.603,2171.98 C1427.194,2204.83 1458.711,2238.744 1490.961,2271.936 C1509.731,2291.255 1528.21,2310.985 1548.324,2328.836 C1570.668,2348.665 1594.052,2367.493 1618.236,2385.03 C1639.694,2400.59 1662.409,2414.588 1685.456,2427.718 C1698.857,2435.353 1713.904,2440.182 1728.402,2445.778 C1738.538,2449.691 1748.891,2453.143 1759.346,2456.1 C1768.206,2458.606 1777.416,2459.846 1786.353,2462.112 C1800.321,2465.654 1814.557,2466.283 1828.83,2466.719 C1841.792,2467.114 1854.805,2468.252 1867.706,2467.514 C1881.576,2466.72 1895.445,2464.674 1909.122,2462.136 C1920.109,2460.097 1931.177,2457.448 1941.547,2453.381 C1956.297,2447.595 1971.004,2441.236 1984.688,2433.321 C1999.015,2425.035 2012.98,2415.642 2025.562,2404.925 C2052.004,2382.401 2074.473,2356.087 2093.743,2327.154 C2101.307,2315.797 2108.324,2304.077 2115.948,2291.89 z"/><path fill="#1A926F" d=" M888.373,815.498 C878.354,808.865 868.824,802.771 859.158,794.192 C862.451,793.034 863.888,792.115 865.348,792.077 C898.259,791.207 930.998,785.954 964.019,788.052 C974.959,788.747 985.877,789.783 996.802,790.705 C1000.772,791.04 1004.736,791.453 1008.694,791.905 C1016.925,792.847 1025.162,793.749 1033.375,794.833 C1045.851,796.481 1058.308,798.274 1070.776,799.994 C1072.749,800.266 1074.747,800.39 1076.706,800.737 C1086.405,802.455 1096.095,804.225 1105.955,806.007 C1109.009,798.829 1108.697,792.977 1105.894,786.915 C1096.52,766.64 1084.554,747.925 1072.424,729.227 C1054.994,702.358 1035.378,677.243 1014.391,653.125 C1011.571,649.885 1009.208,646.247 1005.783,641.654 C1008.507,639.711 1010.722,637.223 1013.461,636.315 C1042.317,626.751 1071.849,620.773 1102.346,619.899 C1113.298,619.586 1124.238,617.978 1135.172,618.086 C1153.437,618.266 1171.658,619.265 1189.652,623.246 C1198.69,625.246 1208.177,625.147 1217.292,626.884 C1262.713,635.541 1305.111,652.536 1345.651,674.407 C1351.182,677.391 1356.223,681.311 1361.378,684.957 C1370.069,691.104 1378.714,697.317 1387.282,703.632 C1390.21,705.79 1393.216,708.03 1395.54,710.779 C1399.292,715.216 1397.654,718.75 1391.781,719.76 C1391.128,719.872 1390.448,719.911 1389.787,719.874 C1371.39,718.835 1353.253,721.348 1335.188,724.215 C1317.424,727.034 1300.321,731.993 1283.72,739.277 C1254.516,752.091 1229.807,770.941 1208.872,794.483 C1192.538,812.852 1178.067,832.793 1169.357,856.267 C1164.759,868.656 1159.426,880.777 1155.031,893.234 C1153.067,898.798 1152.396,904.858 1151.488,910.748 C1149.518,923.524 1147.284,936.291 1146.099,949.148 C1145.246,958.403 1146.202,967.81 1145.841,977.13 C1145.088,996.613 1148.391,1015.536 1153.04,1034.31 C1155.811,1045.502 1158.081,1056.858 1161.587,1067.817 C1165.809,1081.014 1170.668,1094.051 1176.03,1106.83 C1184.65,1127.374 1196.015,1146.46 1207.475,1165.569 C1224.634,1194.182 1245.515,1220 1265.854,1246.208 C1277.043,1260.625 1289.859,1273.805 1302.254,1287.254 C1321.649,1308.298 1341.309,1329.098 1360.856,1350.001 C1379.72,1370.173 1398.917,1390.047 1417.353,1410.603 C1435.107,1430.398 1452.644,1450.444 1469.215,1471.226 C1483.716,1489.409 1497.438,1508.311 1510.21,1527.746 C1521.295,1544.614 1531.597,1562.179 1540.324,1580.358 C1547.725,1595.774 1551.902,1612.703 1558.393,1628.601 C1564.083,1642.537 1566.974,1657.232 1569.069,1671.746 C1572.85,1697.937 1576.697,1724.17 1571.262,1751.066 C1568.322,1765.613 1566.146,1780.337 1562.031,1794.642 C1555.764,1816.431 1546.878,1837.05 1533.655,1855.603 C1526.9,1865.082 1520.653,1875.063 1512.894,1883.66 C1496,1902.381 1475.903,1917.408 1452.684,1927.19 C1435.599,1934.388 1417.84,1940.915 1399.74,1944.509 C1382.396,1947.952 1364.607,1951.695 1346.384,1948.48 C1336.289,1946.7 1325.816,1947.168 1315.623,1945.804 C1305.436,1944.44 1295.244,1942.599 1285.312,1939.986 C1271.512,1936.356 1257.724,1932.432 1244.339,1927.522 C1220.704,1918.853 1197.372,1909.353 1173.93,1900.158 C1172.759,1899.699 1171.746,1898.836 1169.318,1897.328 C1171.531,1895.207 1172.942,1893.06 1174.928,1892.081 C1186.844,1886.213 1198.983,1880.794 1210.878,1874.886 C1234.485,1863.161 1255.897,1848.33 1276.16,1831.338 C1295.607,1815.031 1310.538,1795.403 1324.875,1774.906 C1336.581,1758.17 1345.646,1740.025 1352.642,1721.099 C1357.52,1707.903 1358.593,1693.353 1362.375,1679.687 C1368.286,1658.326 1365.388,1636.63 1365.932,1615.069 C1366.031,1611.17 1364.967,1607.183 1364.045,1603.331 C1362.646,1597.49 1359.107,1593.342 1353.556,1590.764 C1339.379,1584.177 1325.332,1577.306 1311.125,1570.786 C1296.978,1564.293 1282.8,1557.848 1268.449,1551.825 C1255.304,1546.308 1241.967,1541.23 1228.591,1536.293 C1224.994,1534.966 1221.809,1533.864 1220.68,1529.703 C1224.067,1524.456 1229.616,1524.975 1234.227,1524.394 C1252.984,1522.033 1271.785,1519.93 1290.619,1518.292 C1299.557,1517.515 1308.605,1517.995 1317.604,1517.911 C1320.603,1517.884 1323.618,1518.059 1326.6,1517.822 C1335.767,1517.091 1337.5,1514.057 1333.129,1505.687 C1330.058,1499.808 1327.011,1493.727 1322.815,1488.681 C1319.334,1484.495 1314.568,1480.972 1309.706,1478.424 C1300.328,1473.51 1290.617,1469.156 1280.797,1465.179 C1264.87,1458.729 1248.741,1452.78 1232.704,1446.6 C1219.695,1441.587 1206.72,1436.481 1193.686,1431.535 C1180.089,1426.375 1166.457,1421.305 1152.801,1416.301 C1147.564,1414.382 1142.221,1412.752 1137.339,1411.128 C1135.863,1406.322 1138.331,1404.888 1141.552,1404.221 C1163.702,1399.641 1186.01,1396.242 1208.684,1396.038 C1228.015,1395.864 1247.35,1395.98 1266.682,1395.828 C1270.474,1395.799 1275.858,1397.248 1276.811,1392.187 C1277.307,1389.55 1274.288,1385.824 1272.128,1383.187 C1260.827,1369.389 1245.497,1361.182 1229.557,1354.365 C1206.672,1344.578 1183.458,1335.553 1160.302,1326.411 C1149.537,1322.161 1138.628,1318.263 1127.699,1314.451 C1109.574,1308.13 1091.379,1302.012 1073.217,1295.797 C1071.017,1295.045 1068.849,1294.198 1066.649,1293.443 C1057.887,1290.438 1049.112,1287.473 1040.357,1284.447 C1037.765,1283.551 1035.226,1282.501 1031.99,1281.266 C1035.577,1274.718 1040.81,1274.796 1045.556,1274.205 C1064.633,1271.825 1083.725,1269.56 1102.817,1267.303 C1107.101,1266.797 1111.408,1266.18 1115.707,1266.155 C1137.039,1266.028 1158.373,1266.157 1179.705,1266.002 C1183.44,1265.974 1187.169,1265.021 1193.555,1264.121 C1189.088,1259.162 1186.77,1255.561 1183.539,1253.221 C1177.108,1248.565 1169.759,1245.132 1163.534,1240.244 C1149.999,1229.616 1134.203,1223.187 1118.859,1216.247 C1093.216,1204.648 1066.924,1194.469 1040.811,1183.928 C1022.988,1176.734 1005.101,1169.676 987.06,1163.054 C973.729,1158.161 960.072,1154.159 946.64,1149.529 C944.414,1148.762 942.598,1146.805 939.165,1144.395 C942.675,1143.123 944.321,1142.24 946.068,1141.938 C960.48,1139.439 974.879,1136.833 989.347,1134.706 C997.884,1133.451 1006.524,1132.687 1015.145,1132.264 C1034.743,1131.302 1054.353,1130.421 1073.969,1130.064 C1081.56,1129.926 1089.174,1131.354 1096.788,1131.937 C1099.1,1132.114 1101.494,1132.123 1103.766,1131.726 C1107.662,1131.046 1108.942,1128.091 1106.984,1125.113 C1104.846,1121.862 1101.874,1118.935 1098.715,1116.618 C1079.135,1102.256 1058.322,1089.765 1037.223,1077.843 C1014.1,1064.776 990.549,1052.454 967.002,1040.156 C950.2,1031.381 933.264,1022.822 916.073,1014.846 C903.815,1009.157 891.002,1004.671 878.505,999.484 C874.929,998.001 871.59,995.948 868.633,994.411 C868.641,989.268 871.445,988.397 874.572,987.949 C893.318,985.258 912.027,982.251 930.824,979.979 C965.685,975.766 1000.711,978.543 1035.663,978.235 C1043.608,978.165 1051.555,979.575 1059.518,979.894 C1062.606,980.018 1065.739,979.009 1069.415,978.426 C1068.793,976.01 1068.821,974.54 1068.121,973.63 C1053.066,954.054 1036.458,935.984 1017.487,920.051 C1003.995,908.719 991.284,896.461 977.916,884.976 C967.838,876.318 957.289,868.208 946.916,859.895 C939.916,854.286 932.969,848.602 925.801,843.214 C913.583,834.03 901.209,825.052 888.373,815.498 z"/><path fill="#1A926F" d=" M1669.459,2074.425 C1683.772,2076.381 1697.223,2078.466 1710.742,2079.911 C1721.301,2081.041 1731.942,2081.921 1742.551,2081.961 C1775.742,2082.086 1808.179,2076.921 1839.391,2065.561 C1872.079,2053.665 1901.778,2036.537 1928.909,2014.509 C1956.952,1991.741 1982.124,1966.031 2006.599,1939.766 C2034.27,1910.07 2060.538,1879.04 2090.04,1851.094 C2106.203,1835.784 2123.063,1821.187 2139.992,1806.716 C2155.15,1793.759 2170.486,1780.955 2186.402,1768.956 C2197.785,1760.375 2210.239,1753.211 2222.248,1745.464 C2230.919,1739.871 2239.458,1734.038 2248.383,1728.88 C2266.495,1718.411 2284.41,1707.473 2303.172,1698.293 C2329.055,1685.63 2355.499,1674.068 2381.995,1662.718 C2395.921,1656.753 2410.377,1651.96 2424.782,1647.207 C2431.211,1645.085 2438.103,1644.364 2444.784,1643.008 C2445.216,1643.615 2445.647,1644.222 2446.078,1644.829 C2444.615,1646.602 2443.369,1648.627 2441.654,1650.108 C2430.85,1659.443 2419.739,1668.432 2409.123,1677.973 C2397.495,1688.424 2386.352,1699.412 2374.893,1710.054 C2352.849,1730.525 2334.986,1754.643 2316.248,1777.933 C2300.412,1797.615 2285.518,1818.1 2271.035,1838.808 C2261.723,1852.121 2253.931,1866.495 2245.413,1880.366 C2242.975,1884.337 2240.266,1888.143 2237.879,1892.143 C2226.486,1911.234 2215.097,1930.328 2203.829,1949.493 C2191.712,1970.102 2179.741,1990.797 2167.687,2011.444 C2160.655,2023.489 2153.85,2035.678 2146.467,2047.505 C2137.334,2062.135 2127.863,2076.562 2118.236,2090.874 C2112.672,2099.144 2106.509,2107.011 2100.622,2115.064 C2084.672,2136.88 2067.265,2157.525 2047.122,2175.499 C2026.552,2193.853 2005.461,2211.759 1980.941,2224.925 C1968.964,2231.356 1957.265,2238.466 1944.81,2243.798 C1931.761,2249.384 1918.051,2253.515 1904.445,2257.678 C1896.89,2259.989 1888.905,2260.853 1881.203,2262.736 C1854.528,2269.256 1827.348,2266.843 1800.629,2265.211 C1780.758,2263.998 1760.994,2258.504 1741.675,2252.102 C1706.406,2240.413 1675.12,2221.862 1646.524,2198.785 C1625.55,2181.86 1606.436,2162.812 1589.187,2141.93 C1574.986,2124.738 1560.687,2107.637 1549.15,2088.508 C1536.623,2067.737 1524.56,2046.685 1512.297,2025.754 C1510.282,2022.316 1507.92,2019.021 1506.384,2015.38 C1505.098,2012.331 1504.784,2008.873 1503.59,2003.615 C1513.276,2006.069 1519.617,2010.63 1525.36,2014.91 C1538.011,2024.338 1551.83,2031.464 1565.929,2038.111 C1579.41,2044.466 1593.108,2050.443 1607.019,2055.781 C1617.774,2059.909 1629.011,2062.781 1640.026,2066.235 C1646.017,2068.114 1651.96,2070.154 1657.987,2071.906 C1661.469,2072.918 1665.076,2073.502 1669.459,2074.425 z"/><path fill="#1A916F" d=" M2125.126,911.245 C2135.905,904.537 2146.628,898.968 2156.081,891.739 C2170.229,880.92 2183.486,868.934 2197.888,856.799 C2197.109,861.884 2196.747,867.182 2195.441,872.236 C2191.199,888.647 2187.251,905.178 2181.976,921.265 C2176.695,937.371 2170,952.977 2157.592,965.352 C2152.915,970.015 2153.094,973.087 2158.381,976.788 C2168.126,983.609 2178.271,989.856 2188.129,996.52 C2194.182,1000.611 2200.24,1004.754 2205.9,1009.36 C2222.131,1022.568 2238.835,1035.303 2254.067,1049.595 C2267.833,1062.511 2280.702,1076.595 2292.509,1091.333 C2305.962,1108.126 2318.743,1125.631 2330.058,1143.914 C2340.12,1160.172 2349.814,1176.831 2356.381,1195.084 C2361.853,1210.293 2369.012,1224.898 2374.386,1240.136 C2378.324,1251.305 2381.113,1262.958 2383.467,1274.588 C2387.278,1293.41 2390.413,1312.372 2393.626,1331.31 C2395.036,1339.618 2393.839,1363.258 2391.989,1369.25 C2386.027,1369.424 2384.507,1364.184 2382.802,1360.464 C2377.973,1349.923 2373.928,1339.023 2369.522,1328.286 C2368.895,1326.759 2367.978,1325.352 2367.195,1323.889 C2351.987,1295.473 2337.385,1266.727 2318.335,1240.532 C2304.613,1221.664 2290.054,1203.59 2272.792,1187.825 C2271.174,1186.346 2269.108,1185.357 2266.565,1183.693 C2265.544,1186.103 2264.406,1187.729 2264.19,1189.469 C2262.803,1200.667 2261.464,1211.876 2260.437,1223.111 C2259.984,1228.066 2260.084,1233.102 2260.311,1238.083 C2260.733,1247.37 2261.237,1256.662 2262.082,1265.918 C2262.682,1272.491 2263.79,1279.026 2264.861,1285.546 C2266.416,1295.011 2268.204,1304.437 2269.785,1313.897 C2272.585,1330.653 2278.133,1346.608 2283.706,1362.57 C2286.208,1369.738 2288.021,1377.164 2290.816,1384.208 C2295.929,1397.094 2301.594,1409.759 2306.872,1422.581 C2307.552,1424.234 2307.293,1426.274 2307.504,1428.496 C2302.285,1429.33 2299.415,1426.469 2296.775,1423.648 C2291.323,1417.825 2285.899,1411.954 2280.817,1405.81 C2267.288,1389.45 2252.7,1374.059 2240.891,1356.156 C2229.914,1339.512 2218.311,1323.282 2210.154,1305.08 C2202.458,1287.908 2195.121,1270.522 2191.701,1251.759 C2190.348,1244.335 2187.497,1237.19 2185.431,1229.888 C2184.805,1227.674 2184.329,1225.381 2184.113,1223.094 C2182.14,1202.277 2180.206,1181.457 2178.35,1160.63 C2178.026,1156.988 2177.708,1153.263 2178.097,1149.652 C2179.766,1134.128 2176.163,1119.091 2173.189,1104.187 C2171.079,1093.61 2166.143,1083.837 2160.116,1074.338 C2150.311,1058.883 2137.94,1046.013 2124.661,1033.974 C2110.158,1020.826 2094.691,1008.858 2077.462,999.14 C2064.172,991.644 2051.089,983.491 2040.706,971.869 C2035.203,965.708 2032.896,959.44 2036.172,950.951 C2039.106,943.347 2040.423,935.073 2042.014,927.008 C2044.033,916.769 2049.089,913.352 2059.155,916.946 C2065.077,919.061 2070.67,922.201 2076.211,925.245 C2081.355,928.071 2086.006,927.883 2091.366,925.444 C2102.251,920.49 2113.439,916.203 2125.126,911.245 z"/><path fill="#ABBFC6" d=" M2258.912,2004.495 C2258.911,2003.465 2259.404,2002.85 2259.897,2002.235 C2259.733,2003.126 2259.569,2004.017 2258.912,2004.495 z"/><path fill="#114C5F" d=" M2032.843,405.149 C2035.308,406.946 2037.176,408.335 2039.048,409.718 C2053.157,420.148 2051.873,426.371 2041.374,439.394 C2029.445,454.19 2013.515,463.687 1996.39,471.638 C1967.512,485.045 1937.438,486.756 1906.571,482.247 C1899.352,481.193 1892.191,479.689 1885.048,478.183 C1865.85,474.135 1849.71,464.823 1836.775,449.983 C1822.726,433.864 1809.289,417.296 1802.409,396.658 C1800.128,389.817 1798.365,382.509 1798.099,375.35 C1797.479,358.719 1797.732,342.046 1798.023,325.396 C1798.125,319.496 1799.362,313.616 1800.197,306.77 C1804.421,306.439 1807.94,306.063 1811.468,305.904 C1835.559,304.817 1859.175,308.666 1882.823,312.548 C1906.474,316.431 1928.103,325.692 1949.049,336.741 C1955.093,339.929 1960.4,344.514 1966.449,348.741 C1960.928,357.629 1955.651,365.279 1951.283,373.417 C1947.54,380.39 1944.298,387.742 1941.798,395.248 C1937.651,407.705 1940.549,419.699 1946.722,430.741 C1950.249,437.051 1955.011,442.692 1959.431,448.469 C1961.809,451.577 1964.906,451.717 1968.302,449.732 C1979.595,443.131 1988.242,434.358 1992.391,421.605 C1996.194,409.915 1999.329,398.131 1997.836,383.812 C2011.191,390.183 2021.69,397.513 2032.843,405.149 z"/><path fill="#114F60" d=" M1952.417,906.447 C1939.158,917.05 1926.357,927.08 1913.702,937.29 C1906.099,943.424 1902.109,943.294 1896.759,934.763 C1892.036,927.232 1887.557,919.34 1884.436,911.056 C1876.038,888.76 1868.168,866.255 1860.629,843.653 C1857.808,835.196 1856.381,826.262 1854.576,817.492 C1854.299,816.145 1855.085,813.524 1855.964,813.227 C1857.53,812.698 1860.182,812.816 1861.275,813.841 C1878.312,829.821 1898.248,841.885 1917.177,855.279 C1927.967,862.914 1939.286,869.837 1950.629,876.644 C1966.437,886.131 1967.035,892.11 1952.417,906.447 z"/><path fill="#125260" d=" M2305.462,478.366 C2308.925,481.924 2312.39,484.696 2314.482,488.27 C2317.172,492.864 2316.82,497.982 2312.841,502.023 C2306.272,508.696 2298.912,514.235 2289.543,516.422 C2279.452,518.779 2265.82,509.894 2262.788,498.049 C2261.004,491.079 2260.226,483.682 2260.204,476.473 C2260.174,466.713 2267.264,462.955 2276.315,466.767 C2285.727,470.731 2295.333,474.233 2305.462,478.366 z"/></svg>